<?xml version="1.0" encoding="UTF-8"?>
<svg width="32px" height="32px" viewBox="0 0 32 32" version="1.1" xmlns="http://www.w3.org/2000/svg" xmlns:xlink="http://www.w3.org/1999/xlink">
    <!-- Generator: Sketch 60.1 (88133) - https://sketch.com -->
    <title>ic_file_audio备份</title>
    <desc>Created with Sketch.</desc>
    <g id="备课包" stroke="none" stroke-width="1" fill="none" fill-rule="evenodd">
        <g id="创建备课包-交互" transform="translate(-791.000000, -834.000000)">
            <g id="ic_file_audio备份" transform="translate(791.000000, 834.000000)">
                <rect id="矩形" fill="#D8D8D8" opacity="0" x="0" y="0" width="32" height="32"></rect>
                <g id="音频" transform="translate(1.333333, 0.000000)" fill="#595959">
                    <path d="M23.3570937,0 L29.3333333,6.02329654 L29.3333333,29.3333333 C29.3333333,30.8060927 28.139426,32 26.6666667,32 L2.66666667,32 C1.19390733,32 0,30.8060927 0,29.3333333 L0,2.66666667 C0,1.19390733 1.19390733,0 2.66666667,0 L23.3570937,0 Z M22.8013333,1.33333333 L2.66666667,1.33333333 C1.9637588,1.33333333 1.38788992,1.87725186 1.33699049,2.56715844 L1.33333333,2.66666667 L1.33333333,29.3333333 C1.33333333,30.0362412 1.87725186,30.6121101 2.56715844,30.6630095 L2.66666667,30.6666667 L26.6666667,30.6666667 C27.3695745,30.6666667 27.9454434,30.1227481 27.9963428,29.4328416 L28,29.3333333 L28,6.572 L22.8013333,1.33333333 Z" id="矩形" fill-rule="nonzero"></path>
                    <path d="M15.6,20.56 L15.6,20.28 C15.6,19.8 15.7,19.36 15.9,18.96 C16.08,18.6 16.34,18.26 16.7,17.98 C17.66,17.14 18.24,16.6 18.42,16.4 C18.9,15.76 19.16,14.94 19.16,13.94 C19.16,12.72 18.76,11.76 17.96,11.06 C17.16,10.34 16.1,10 14.8,10 C13.32,10 12.16,10.42 11.3,11.26 C10.42,12.1 10,13.26 10,14.74 L12.28,14.74 C12.28,13.88 12.44,13.22 12.78,12.76 C13.18,12.22 13.8,11.96 14.66,11.96 C15.34,11.96 15.88,12.14 16.26,12.52 C16.62,12.9 16.82,13.42 16.82,14.08 C16.82,14.58 16.64,15.06 16.28,15.5 L16.04,15.78 C14.74,16.94 13.96,17.78 13.7,18.32 C13.42,18.86 13.3,19.52 13.3,20.28 L13.3,20.56 L15.6,20.56 Z M14.44,24.56 C14.88,24.56 15.24,24.42 15.56,24.14 C15.84,23.86 16,23.48 16,23.04 C16,22.6 15.84,22.24 15.56,21.96 C15.26,21.68 14.88,21.54 14.44,21.54 C14,21.54 13.64,21.68 13.36,21.96 C13.04,22.24 12.9,22.6 12.9,23.04 C12.9,23.48 13.04,23.84 13.36,24.12 C13.64,24.4 14,24.56 14.44,24.56 Z" id="?" fill-rule="nonzero"></path>
                    <path d="M22,0 L29.3333333,7.33333333 L25,7.33333333 C23.3431458,7.33333333 22,5.99018758 22,4.33333333 L22,0 L22,0 Z" id="矩形"></path>
                </g>
            </g>
        </g>
    </g>
</svg>
