<?xml version="1.0" encoding="UTF-8"?>
<svg width="32px" height="32px" viewBox="0 0 32 32" version="1.1" xmlns="http://www.w3.org/2000/svg" xmlns:xlink="http://www.w3.org/1999/xlink">
    <!-- Generator: Sketch 60.1 (88133) - https://sketch.com -->
    <title>ic_file_ppt备份</title>
    <desc>Created with Sketch.</desc>
    <g id="备课包" stroke="none" stroke-width="1" fill="none" fill-rule="evenodd">
        <g id="创建备课包-交互" transform="translate(-716.000000, -834.000000)">
            <g id="ic_file_ppt备份" transform="translate(716.000000, 834.000000)">
                <rect id="矩形备份-2" fill="#D8D8D8" opacity="0" x="0" y="0" width="32" height="32"></rect>
                <g id="音频备份" transform="translate(1.333333, 0.000000)" fill="#FF7A45">
                    <path d="M23.3570937,0 L29.3333333,6.02329654 L29.3333333,29.3333333 C29.3333333,30.8060927 28.139426,32 26.6666667,32 L2.66666667,32 C1.19390733,32 0,30.8060927 0,29.3333333 L0,2.66666667 C0,1.19390733 1.19390733,0 2.66666667,0 L23.3570937,0 Z M22.8013333,1.33333333 L2.66666667,1.33333333 C1.9637588,1.33333333 1.38788992,1.87725186 1.33699049,2.56715844 L1.33333333,2.66666667 L1.33333333,29.3333333 C1.33333333,30.0362412 1.87725186,30.6121101 2.56715844,30.6630095 L2.66666667,30.6666667 L26.6666667,30.6666667 C27.3695745,30.6666667 27.9454434,30.1227481 27.9963428,29.4328416 L28,29.3333333 L28,6.572 L22.8013333,1.33333333 Z" id="矩形" fill-rule="nonzero"></path>
                    <path d="M11.9663866,24 L11.9663866,19.394958 L14.9411765,19.394958 C17.8655462,19.394958 19.3277311,18.1512605 19.3277311,15.6806723 C19.3277311,13.2268908 17.8655462,12 14.9747899,12 L10,12 L10,24 L11.9663866,24 Z M14.8235294,17.7142857 L11.9663866,17.7142857 L11.9663866,13.6806723 L14.8235294,13.6806723 C15.6806723,13.6806723 16.3193277,13.8319328 16.7226891,14.1512605 C17.1260504,14.4537815 17.3445378,14.9579832 17.3445378,15.6806723 C17.3445378,16.4033613 17.1428571,16.9243697 16.7394958,17.2436975 C16.3361345,17.5462185 15.697479,17.7142857 14.8235294,17.7142857 Z" id="P" fill-rule="nonzero"></path>
                    <path d="M22,0 L29.3333333,7.33333333 L25,7.33333333 C23.3431458,7.33333333 22,5.99018758 22,4.33333333 L22,0 L22,0 Z" id="矩形"></path>
                </g>
            </g>
        </g>
    </g>
</svg>
