<?xml version="1.0" encoding="UTF-8"?>
<svg width="32px" height="32px" viewBox="0 0 32 32" version="1.1" xmlns="http://www.w3.org/2000/svg" xmlns:xlink="http://www.w3.org/1999/xlink">
    <!-- Generator: Sketch 60.1 (88133) - https://sketch.com -->
    <title>ic_file_picture备份 2</title>
    <desc>Created with Sketch.</desc>
    <g id="备课包" stroke="none" stroke-width="1" fill="none" fill-rule="evenodd">
        <g id="创建备课包-交互" transform="translate(-1088.000000, -834.000000)">
            <g id="ic_file_picture备份-2" transform="translate(1088.000000, 834.000000)">
                <g id="音频备份" transform="translate(1.333333, 0.000000)">
                    <path d="M23.3570937,0 L29.3333333,6.02329654 L29.3333333,29.3333333 C29.3333333,30.8060927 28.139426,32 26.6666667,32 L2.66666667,32 C1.19390733,32 0,30.8060927 0,29.3333333 L0,2.66666667 C0,1.19390733 1.19390733,0 2.66666667,0 L23.3570937,0 Z M22.8013333,1.33333333 L2.66666667,1.33333333 C1.9637588,1.33333333 1.38788992,1.87725186 1.33699049,2.56715844 L1.33333333,2.66666667 L1.33333333,29.3333333 C1.33333333,30.0362412 1.87725186,30.6121101 2.56715844,30.6630095 L2.66666667,30.6666667 L26.6666667,30.6666667 C27.3695745,30.6666667 27.9454434,30.1227481 27.9963428,29.4328416 L28,29.3333333 L28,6.572 L22.8013333,1.33333333 Z" id="矩形" fill="#FF7A45" fill-rule="nonzero"></path>
                    <path d="M22,0 L29.3333333,7.33333333 L25,7.33333333 C23.3431458,7.33333333 22,5.99018758 22,4.33333333 L22,0 L22,0 Z" id="矩形" fill="#FF7A45"></path>
                    <g id="编组" transform="translate(14.604167, 18.000000) rotate(-315.000000) translate(-14.604167, -18.000000) translate(10.666667, 11.000000)" stroke="#FF7A45" stroke-linecap="round" stroke-width="1.5">
                        <path d="M5.25,3.0625 L5.25,10.0625 C5.25,10.7873737 4.66237373,11.375 3.9375,11.375 C3.21262627,11.375 2.625,10.7873737 2.625,10.0625 L2.625,3.8885016 L2.625,3.0625" id="矩形"></path>
                        <path d="M0,8.52295154 L0,3.97979006 L0,2.625 C0,1.17525253 1.17525253,4.08562073e-14 2.625,4.08562073e-14 C4.07474747,4.08562073e-14 5.25,1.17525253 5.25,2.625 L5.25,7" id="矩形备份-23"></path>
                        <path d="M0,3.9375 L0,10.0625 C0,12.2371212 1.7628788,14 3.9375,14 C6.1121212,14 7.875,12.2371212 7.875,10.0625 C7.875,7.66694289 7.875,5.87027506 7.875,4.67249651 C7.875,4.50916395 7.875,3.68083178 7.875,2.1875" id="矩形备份-23"></path>
                    </g>
                </g>
            </g>
        </g>
    </g>
</svg>
