<?xml version="1.0" encoding="UTF-8"?>
<svg width="96px" height="48px" viewBox="0 0 96 48" version="1.1" xmlns="http://www.w3.org/2000/svg" xmlns:xlink="http://www.w3.org/1999/xlink">
    <!-- Generator: Sketch 55.2 (78181) - https://sketchapp.com -->
    <title>内容为空</title>
    <desc>Created with Sketch.</desc>
    <g id="icon" stroke="none" strokeWidth="1" fill="none" fill-rule="evenodd">
        <g transform="translate(-21.000000, -119.000000)" fill-rule="nonzero" id="内容为空">
            <g transform="translate(21.000000, 119.000000)">
                <polygon id="路径" fill="#FFFFFF" points="23.9072171 33.4493811 71.6525752 33.4493811 71.6525752 46.8888152 23.9072171 46.8888152"></polygon>
                <path d="M71.1220712,33.9798851 L71.1220712,46.3583112 L24.4377211,46.3583112 L24.4377211,33.9798851 L71.1220712,33.9798851 L71.1220712,33.9798851 Z M72.1830791,32.9188771 L23.3767131,32.9188771 L23.3767131,47.4193192 L72.1830791,47.4193192 L72.1830791,32.9188771 L72.1830791,32.9188771 Z" id="形状" fill="#D9D9D9"></path>
                <path d="M23.9072171,33.4493811 L23.9072171,6.39367818 C23.9072171,3.17599472 26.5250774,0.558134375 29.7427608,0.558134375 L65.8170314,0.558134375 C69.0347149,0.558134375 71.6525752,3.17599467 71.6525752,6.39367818 L71.6525752,33.4493811 L23.9072171,33.4493811 Z" id="路径" fill="#FAFAFA"></path>
                <path d="M65.8170314,1.08863836 C68.7422303,1.08863836 71.1220712,3.4684792 71.1220712,6.39367818 L71.1220712,32.9188771 L24.4377211,32.9188771 L24.4377211,6.39367818 C24.4377211,3.46847926 26.8175619,1.08863836 29.7427608,1.08863836 L65.8170314,1.08863836 L65.8170314,1.08863836 Z M65.8170314,0.0276304418 L29.7427608,0.0276304418 C26.2269341,0.0276304418 23.3767131,2.87785151 23.3767131,6.39367818 L23.3767131,33.9798851 L72.1830791,33.9798851 L72.1830791,6.39367818 C72.1830791,2.87785145 69.3328581,0.0276304418 65.8170314,0.0276304418 L65.8170314,0.0276304418 Z M40.7065098,37.1629089 L29.3890915,37.1629089 C28.9984391,37.1629089 28.6817529,37.4795952 28.6817529,37.8702476 C28.6817529,38.2608999 28.9984391,38.5775862 29.3890915,38.5775862 L40.7065098,38.5775862 C41.0971621,38.5775862 41.4138484,38.2608999 41.4138484,37.8702476 C41.4138484,37.4795952 41.0971621,37.1629089 40.7065098,37.1629089 L40.7065098,37.1629089 Z M52.3775973,41.4069408 L29.3890915,41.4069408 C28.9984391,41.4069408 28.6817529,41.7236271 28.6817529,42.1142794 C28.6817529,42.5049318 28.9984391,42.821618 29.3890915,42.821618 L52.3775973,42.821618 C52.7682496,42.821618 53.0849359,42.5049318 53.0849359,42.1142794 C53.0849359,41.7236271 52.7682496,41.4069408 52.3775973,41.4069408 L52.3775973,41.4069408 Z M14.1813108,46.3583112 L0.74187667,46.3583112 C0.351224316,46.3583112 0.0345380119,46.6749975 0.0345380119,47.0656499 C0.0345380119,47.4563022 0.351224316,47.7729885 0.74187667,47.7729885 L14.1813108,47.7729885 C14.5719631,47.7729885 14.8886494,47.4563022 14.8886494,47.0656499 C14.8886494,46.6749975 14.5719631,46.3583112 14.1813108,46.3583112 L14.1813108,46.3583112 Z M85.268844,46.3583112 L81.3784814,46.3583112 C80.9878291,46.3583112 80.6711428,46.6749975 80.6711428,47.0656499 C80.6711428,47.4563022 80.9878291,47.7729885 81.3784814,47.7729885 L85.268844,47.7729885 C85.6594963,47.7729885 85.9761826,47.4563022 85.9761826,47.0656499 C85.9761826,46.6749975 85.6594963,46.3583112 85.268844,46.3583112 L85.268844,46.3583112 Z M94.8179156,46.3583112 L90.9275531,46.3583112 C90.5369007,46.3583112 90.2202144,46.6749975 90.2202144,47.0656499 C90.2202144,47.4563022 90.5369007,47.7729885 90.9275531,47.7729885 L94.8179156,47.7729885 C95.2085679,47.7729885 95.5252542,47.4563022 95.5252542,47.0656499 C95.5252542,46.6749975 95.2085679,46.3583112 94.8179156,46.3583112 L94.8179156,46.3583112 Z M75.7197723,46.3583112 L19.8400199,46.3583112 C19.4493675,46.3583112 19.1326812,46.6749975 19.1326812,47.0656499 C19.1326812,47.4563022 19.4493675,47.7729885 19.8400199,47.7729885 L75.7197723,47.7729885 C76.1104247,47.7729885 76.427111,47.4563022 76.427111,47.0656499 C76.427111,46.6749975 76.1104247,46.3583112 75.7197723,46.3583112 Z M75.1899757,32.1697987 C75.6340785,32.1685578 76.060214,32.3450742 76.3733532,32.6599912 L79.274149,35.5607869 C79.9265736,36.2149568 79.9265736,37.2737258 79.274149,37.9278957 C78.9610098,38.2428127 78.5348743,38.419329 78.0907714,38.4180883 C77.6466608,38.4193685 77.2205107,38.2428461 76.9073939,37.9278957 L74.0065982,35.0270999 C73.6916812,34.7139607 73.5151648,34.2878252 73.5164059,33.8437224 C73.5164059,33.3966843 73.6904177,32.9761715 74.0065982,32.6603448 C74.3196117,32.3451977 74.7457983,32.1685328 75.1899757,32.1697987 L75.1899757,32.1697987 Z M75.1899757,31.1087954 C74.083802,31.1086114 73.0864666,31.7748705 72.663127,32.7968313 C72.2397875,33.8187922 72.4738358,34.9951427 73.2561119,35.7772325 L76.1569076,38.6780283 C76.6909483,39.212069 77.3908599,39.4790893 78.0907714,39.4790893 C78.790683,39.4790893 79.4905946,39.212069 80.0246353,38.6780283 C81.0926631,37.6099783 81.0926631,35.8783506 80.0246353,34.8103006 L77.1238395,31.9095048 C76.6113556,31.3960405 75.9154305,31.107896 75.1899757,31.1087954 Z" id="形状" fill="#D9D9D9"></path>
                <path d="M85.4347149,47.4483339 C84.4492791,47.451014 83.5037096,47.0594145 82.8087202,46.3607869 L78.6014699,42.1535367 C77.9001437,41.4522105 77.5139368,40.5195844 77.5139368,39.527542 C77.5139368,38.5354995 77.9001437,37.6032272 78.6014699,36.9015473 C79.3027962,36.1998674 80.2354222,35.8140142 81.2274647,35.8140142 C82.2195071,35.8140142 83.1517794,36.2002211 83.8534593,36.9015473 L88.0607095,41.1087975 C89.5086317,42.5567197 89.5086317,44.9128647 88.0607095,46.3607869 C87.3656754,47.0593477 86.420135,47.4509352 85.4347149,47.4483339 Z" id="路径" fill="#FAFAFA"></path>
                <path d="M81.2274647,36.3445058 C82.0721235,36.3421613 82.8826098,36.6778688 83.4782162,37.2767905 L87.6854664,41.4840407 C88.2843881,42.079647 88.6200955,42.8901334 88.6177511,43.7347922 C88.6200955,44.5794511 88.2843881,45.3899374 87.6854664,45.9855437 C87.0842286,46.5867816 86.2849359,46.9178161 85.4347149,46.9178161 C84.5844939,46.9178161 83.7852012,46.5867816 83.1839633,45.9855437 L78.9767131,41.7782935 C78.3754753,41.1770557 78.0444408,40.377763 78.0444408,39.527542 C78.0444408,38.6773209 78.3754753,37.8780283 78.9767131,37.2767905 C79.5723194,36.6778687 80.3828058,36.3421613 81.2274647,36.3445058 L81.2274647,36.3445058 Z M81.2274647,35.283507 C80.1016111,35.2821203 79.0216325,35.7295127 78.2265804,36.5266578 C76.569286,38.1839523 76.569286,40.8711317 78.2265804,42.5287798 L82.4338307,46.7360301 C83.2288827,47.5331752 84.3088613,47.9805676 85.4347149,47.9791809 C86.5208334,47.9791809 87.6069518,47.5646773 88.435599,46.7360301 C90.0928935,45.0787356 90.0928935,42.3915561 88.435599,40.733908 L84.2283488,36.5266578 C83.4332967,35.7295127 82.3533182,35.2821203 81.2274647,35.283507 L81.2274647,35.283507 Z" id="形状" fill="#D9D9D9"></path>
                <path d="M64.7560234,38.4007516 C56.8578802,38.4007516 50.432416,31.9752874 50.432416,24.0771441 C50.432416,16.1790009 56.8578802,9.75353669 64.7560234,9.75353669 C72.6541667,9.75353669 79.0796309,16.1790009 79.0796309,24.0771441 C79.0796309,31.9752874 72.6541667,38.4007516 64.7560234,38.4007516 Z" id="路径" fill="#FAFAFA"></path>
                <path d="M64.7560234,10.2840407 C72.3616822,10.2840407 78.5491269,16.4714854 78.5491269,24.0771441 C78.5491269,31.6828029 72.3616822,37.8702476 64.7560234,37.8702476 C57.1503647,37.8702476 50.96292,31.6828029 50.96292,24.0771441 C50.96292,16.4714854 57.1503647,10.2840407 64.7560234,10.2840407 L64.7560234,10.2840407 Z M64.7560234,9.2230327 C56.5523099,9.2230327 49.901912,15.8734306 49.901912,24.0771441 C49.901912,32.2808577 56.5523099,38.9312555 64.7560234,38.9312555 C72.959737,38.9312555 79.6101349,32.2808577 79.6101349,24.0771441 C79.6101349,15.8734306 72.959737,9.2230327 64.7560234,9.2230327 Z" id="形状" fill="#D9D9D9"></path>
                <path d="M64.7560234,34.5103891 C58.9056255,34.5103891 54.1459439,29.7507074 54.1459439,23.9003095 C54.1459439,18.0499116 58.9056255,13.2902299 64.7560234,13.2902299 C70.6064213,13.2902299 75.366103,18.0499116 75.366103,23.9003095 C75.366103,29.7507074 70.6064213,34.5103891 64.7560234,34.5103891 Z" id="路径" fill="#FFFFFF"></path>
                <path d="M64.7560234,13.8207339 C70.3139368,13.8207339 74.835599,18.3423961 74.835599,23.9003095 C74.835599,29.4582228 70.3139368,33.9798851 64.7560234,33.9798851 C59.1981101,33.9798851 54.6764478,29.4582228 54.6764478,23.9003095 C54.6764478,18.3423961 59.1981101,13.8207339 64.7560234,13.8207339 L64.7560234,13.8207339 Z M64.7560234,12.7597259 C58.6032383,12.7597259 53.6154399,17.7475243 53.6154399,23.9003095 C53.6154399,30.0530947 58.6032383,35.040893 64.7560234,35.040893 C70.9088086,35.040893 75.896607,30.0530946 75.896607,23.9003095 C75.896607,17.7475244 70.9088086,12.7597259 64.7560234,12.7597259 Z" id="形状" fill="#D9D9D9"></path>
                <path d="M58.5272731,21.5894785 C58.4338481,21.9375633 58.5860322,22.30498 58.8982227,22.4850587 L62.0798319,24.6000012 C62.4604249,24.8197431 62.9470925,24.6893476 63.1668345,24.3087545 C63.3865764,23.9281615 63.2561808,23.4414938 62.8755878,23.2217519 L59.6939786,21.1068094 C59.5732545,21.0369717 59.4362769,21.0001354 59.296808,21 C58.936404,20.9995575 58.6206981,21.2413937 58.5272731,21.5894785 Z" id="路径" fill="#D9D9D9"></path>
                <path d="M71.4180924,21.4433681 C71.2829907,21.4433681 71.1461207,21.4776746 71.0209218,21.5501768 L67.8393126,23.6651193 C67.4619544,23.8863442 67.3339055,24.370674 67.5526222,24.7494913 C67.7713389,25.1283087 68.2548086,25.2595677 68.6350685,25.0433687 L71.8166777,22.9284262 C72.1288681,22.7483474 72.2810522,22.3809308 72.1876272,22.032846 C72.0942023,21.6847613 71.7784964,21.442925 71.4180924,21.4433681 L71.4180924,21.4433681 Z" id="路径" fill="#D9D9D9"></path>
                <path d="M68.2442639,23.5501762 C67.8838599,23.5497331 67.568154,23.7915694 67.4747291,24.1396542 C67.3813041,24.4877389 67.5334882,24.8551556 67.8456786,25.0352343 L71.5174735,27.1024315 C71.8980665,27.3222711 72.3848134,27.1919547 72.604653,26.8113616 C72.8244926,26.4307686 72.6941762,25.9440218 72.3135831,25.7241822 L68.6417883,23.656985 C68.520941,23.5871339 68.3838462,23.5502988 68.2442639,23.5501762 L68.2442639,23.5501762 Z" id="路径" fill="#D9D9D9"></path>
                <path d="M58.587557,23.2333486 C58.2281137,23.2328944 57.9132494,23.4807391 57.8200735,23.837472 C57.7268975,24.1942049 57.878676,24.57075 58.1900342,24.7553028 L61.8520415,26.8738593 C62.23162,27.0991608 62.7170693,26.9656067 62.9363229,26.5755579 C63.1555765,26.185509 63.0256075,25.686669 62.646029,25.4613675 L58.9840217,23.342811 C58.8634966,23.2712244 58.7267673,23.2334742 58.587557,23.2333486 L58.587557,23.2333486 Z" id="路径备份" fill="#D9D9D9" transform="translate(60.417873, 25.108349) rotate(-240.000000) translate(-60.417873, -25.108349) "></path>
                <path d="M77.2228669,22.3091512 C74.1943966,22.3091512 71.7300287,19.7708665 71.7300287,16.6507957 C71.7300287,14.8467286 72.8338307,13.5034925 74.1123453,11.9480548 C74.9958112,10.8725464 75.9977564,9.65380194 76.7450597,8.1075597 C76.8335467,7.92414122 77.0192195,7.8075654 77.2228669,7.8075654 C77.4265144,7.8075654 77.6121872,7.92414122 77.7006742,8.1075597 C78.4479775,9.65380194 79.4499226,10.8725464 80.3333886,11.9480548 C81.6119032,13.5034925 82.7157051,14.8467286 82.7157051,16.6507957 C82.7157051,19.7708665 80.2513373,22.3091512 77.2228669,22.3091512 L77.2228669,22.3091512 Z" id="路径" fill="#FFFFFF"></path>
                <path d="M77.2228669,8.33850577 C79.0424956,12.101901 82.1852011,13.838771 82.1852011,16.6507957 C82.1852011,19.4628205 79.952133,21.7786472 77.2228669,21.7786472 C74.4936008,21.7786472 72.260179,19.5041998 72.260179,16.6507957 C72.260179,13.838771 75.4032383,12.1015473 77.2228669,8.33850577 L77.2228669,8.33850577 Z M77.2228669,7.27749779 C76.8158973,7.27749779 76.4447735,7.51023139 76.2676061,7.87661363 C75.5475353,9.36591514 74.6096043,10.507206 73.7024425,11.611008 C72.4150862,13.1770557 71.1995247,14.6564545 71.1995247,16.6507957 C71.1995247,20.063351 73.9015584,22.8396552 77.2232206,22.8396552 C80.5445291,22.8396552 83.2465628,20.063351 83.2465628,16.6507957 C83.2465628,14.6568081 82.0306476,13.1774094 80.743645,11.611008 C79.8364832,10.507206 78.8985522,9.36591514 78.1784814,7.87661363 C78.0011266,7.51023461 77.6299152,7.27749779 77.2228669,7.27749779 Z" id="形状" fill="#D9D9D9"></path>
                <path d="M79.6759173,19.3832482 C79.5740115,19.383749 79.4808765,19.325674 79.4364839,19.2339442 C79.3920912,19.1422144 79.4043347,19.0331414 79.4679598,18.9535367 L80.4189766,17.754244 C80.4984208,17.6534772 80.6387139,17.6242656 80.7517794,17.6849248 C80.8648818,17.74515 80.9187618,17.8776176 80.8798077,17.9996905 C80.557615,19.0122458 79.8134947,19.347878 79.7820181,19.3616711 C79.7483989,19.3757205 79.7123536,19.3830498 79.6759173,19.3832482 L79.6759173,19.3832482 Z M80.4200376,16.0332893 C80.3443611,16.033389 80.2722651,16.0010745 80.2219828,15.9445181 L79.0262268,14.602343 L78.9540782,14.5333775 C78.4907714,14.0909372 78.0532825,13.6729001 77.8276415,13.2446065 C77.764388,13.1258038 77.8001369,12.9784598 77.9108008,12.9018532 C78.0214648,12.8252466 78.1719609,12.8436636 78.2608864,12.9446949 L79.4081897,14.2334659 C79.8768015,14.681565 80.3234858,15.12542 80.6432029,15.6251547 C80.6953764,15.7067583 80.6989233,15.8103118 80.6524556,15.8952939 C80.6059878,15.9802761 80.5168942,16.0331743 80.4200376,16.0332893 L80.4200376,16.0332893 Z" id="形状" fill="#FFFFFF"></path>
                <path d="M78.0624779,12.5906715 C77.876738,12.5907591 77.7045706,12.6879807 77.6085724,12.8469891 C77.5125742,13.0059974 77.5067277,13.2036321 77.5931587,13.3680371 C77.8389589,13.8352343 78.2927166,14.2681255 78.7733532,14.7268346 L78.835599,14.7862511 L80.023928,16.1202918 C80.2078905,16.3271475 80.5200947,16.3575049 80.740462,16.1899647 C80.9609373,16.0227892 81.0159036,15.7142388 80.8667219,15.4812113 C80.5332117,14.9599027 80.077332,14.5054377 79.5995247,14.0484969 L78.4589412,12.7678603 C78.3581207,12.6549363 78.2138601,12.590463 78.0624779,12.5906715 L78.0624779,12.5906715 Z M80.6269341,17.3878404 C80.4728042,17.3873966 80.3261734,17.4543171 80.2255195,17.5710433 L80.2081897,17.5922635 L79.2600022,18.7880195 C79.1086209,18.9789417 79.1067561,19.2484347 79.2554807,19.4414336 C79.4042054,19.6344325 79.6652754,19.7013082 79.8884726,19.6035809 C79.9779509,19.5643237 80.7652188,19.1929709 81.1224248,18.1107427 C81.1854513,17.9493588 81.1656443,17.7673606 81.0693775,17.6233127 C80.9731107,17.4792648 80.8125316,17.3913442 80.6393126,17.3878404 L80.6269341,17.3878404 L80.6269341,17.3878404 Z" id="形状" fill="#D9D9D9"></path>
                <path d="M8.52260167,22.8393015 C7.64514811,22.8393015 6.93108976,22.1252432 6.93108976,21.2477895 C6.93108976,20.3703359 7.64514811,19.6562776 8.52260167,19.6562776 L11.7056255,19.6562776 C12.5830791,19.6562776 13.2971375,20.370336 13.2971375,21.2477895 C13.2971375,22.1252431 12.5830791,22.8393015 11.7056255,22.8393015 L8.52260167,22.8393015 L8.52260167,22.8393015 Z" id="路径" fill="#FAFAFA"></path>
                <path d="M11.7056255,20.1867816 C12.0847441,20.1866962 12.4351007,20.3889045 12.6246846,20.7172166 C12.8142686,21.0455287 12.8142686,21.4500505 12.6246846,21.7783626 C12.4351007,22.1066747 12.0847441,22.308883 11.7056255,22.3087975 L8.52260167,22.3087975 C8.14348309,22.308883 7.79312652,22.1066747 7.60354257,21.7783626 C7.41395861,21.4500505 7.41395861,21.0455287 7.60354257,20.7172166 C7.79312652,20.3889045 8.14348309,20.1866962 8.52260167,20.1867816 L11.7056255,20.1867816 L11.7056255,20.1867816 Z M11.7056255,19.1257737 L8.52260167,19.1257737 C7.35266358,19.1257737 6.40058578,20.0778515 6.40058578,21.2477895 C6.40058578,22.4177276 7.35266358,23.3698055 8.52260167,23.3698055 L11.7056255,23.3698055 C12.8755636,23.3698055 13.8276415,22.4177277 13.8276415,21.2477895 C13.8276415,20.0778514 12.8755637,19.1257737 11.7056255,19.1257737 Z" id="形状" fill="#D9D9D9"></path>
                <path d="M14.8893568,16.6628337 C14.6903375,16.6628337 14.4930896,16.6254314 14.3079244,16.5524757 C14.293882,16.5469224 14.2800769,16.5407869 14.2665451,16.5340849 L12.1604443,15.4935898 C11.7773014,15.3374053 11.4706584,15.037238 11.3063329,14.6575155 C11.1364862,14.2707828 11.1284626,13.8321641 11.2840517,13.4394783 C11.5211264,12.8287233 12.1100702,12.4272346 12.7652189,12.4297406 C12.9643347,12.4297406 13.1602675,12.4668877 13.3470048,12.5404509 C13.360798,12.545756 13.3745911,12.5517683 13.3880305,12.558488 L15.4941313,13.5989832 C15.8773589,13.7550387 16.1840443,14.0552476 16.3482427,14.4350575 C16.5180698,14.821671 16.5260935,15.2601734 16.3705239,15.6527409 C16.1337287,16.2637663 15.5446558,16.6654837 14.8893568,16.6628337 L14.8893568,16.6628337 Z" id="路径" fill="#FAFAFA"></path>
                <path d="M12.7659262,12.9602559 C12.8950155,12.9602559 13.0262268,12.9839523 13.1535477,13.0341733 L15.2776857,14.0835102 C15.635021,14.2189237 15.891934,14.5360303 15.9502742,14.9136833 C16.0086144,15.2913362 15.859368,15.6711868 15.5595527,15.9081175 C15.2597375,16.1450482 14.855676,16.2024525 14.5017352,16.0583996 L12.3775973,15.0090628 C11.9026209,14.8228384 11.6274289,14.3249333 11.7224361,13.8236792 C11.8174434,13.3224251 12.255748,12.9597554 12.7659262,12.9602559 L12.7659262,12.9602559 Z M12.7659262,11.8992312 C11.8922258,11.8957298 11.1067632,12.4311382 10.790683,13.2456676 C10.5833691,13.7691519 10.5940665,14.3538132 10.8203913,14.8693634 C11.0366502,15.3695776 11.4383828,15.766493 11.9411693,15.976702 L14.0320623,17.0097701 C14.0589412,17.0228559 14.0861738,17.0352343 14.1141136,17.0461981 C14.361116,17.1434996 14.624234,17.1934117 14.8897105,17.1933418 C15.7634109,17.1968431 16.5488733,16.6614347 16.8649536,15.8469054 C17.0722675,15.323421 17.0615702,14.7387598 16.8352454,14.2232095 C16.6189864,13.7229954 16.2172538,13.32608 15.7144673,13.1158709 L13.6235742,12.0828029 C13.5967154,12.0695818 13.5693436,12.0574296 13.541523,12.0463749 C13.2945207,11.9490733 13.0314026,11.8991613 12.7659262,11.8992312 L12.7659262,11.8992312 Z" id="形状" fill="#D9D9D9"></path>
                <path d="M12.790683,30.4608895 C12.1353744,30.4636407 11.5462006,30.0620911 11.3091622,29.4511494 C11.153612,29.0587 11.1616359,28.6203139 11.3314434,28.2338196 C11.4951218,27.8553438 11.80023,27.5558199 12.1816644,27.39916 L14.2598254,26.3356764 C14.2753869,26.3278957 14.2913019,26.3204686 14.3079244,26.3137489 C14.4930896,26.2407932 14.6903375,26.2033913 14.8893568,26.2033913 C15.5445151,26.2007838 16.1335599,26.6021049 16.3708775,27.2127763 C16.6869067,28.0204308 16.2992114,28.932544 15.4983753,29.265473 L13.4198607,30.3289567 C13.4042136,30.3368359 13.3882882,30.3441497 13.3721154,30.3508842 C13.1868894,30.4235891 12.9896672,30.4608895 12.790683,30.4608895 L12.790683,30.4608895 Z" id="路径" fill="#FAFAFA"></path>
                <path d="M14.8897105,26.7335544 C15.3993555,26.7339506 15.8367731,27.0965349 15.931681,27.5972651 C16.026589,28.0979954 15.7521913,28.5954965 15.2780393,28.7823607 L13.1786582,29.8568081 C12.6382851,30.0515215 12.0410632,29.781024 11.8310148,29.246425 C11.6209664,28.711826 11.874318,28.1071311 12.4027078,27.8819186 L14.5020888,26.8074713 C14.62549,26.7586479 14.7570019,26.7335544 14.8897105,26.7335544 L14.8897105,26.7335544 Z M14.8897105,25.6725325 C14.6237511,25.6725325 14.3627432,25.7220601 14.1141136,25.8196728 C14.0815861,25.8324594 14.0497162,25.8468598 14.0186229,25.8628205 L11.9581454,26.9171087 C11.458919,27.1282772 11.0602915,27.523738 10.8451481,28.0212644 C10.6188429,28.5369424 10.608146,29.1217042 10.8154399,29.6453139 C11.1316852,30.4597121 11.9170444,30.9950501 12.790683,30.9917483 C13.0566423,30.9917483 13.3176503,30.9422193 13.5662798,30.8446065 C13.5988174,30.8318744 13.6306477,30.817374 13.6617706,30.8014589 L15.722248,29.7471706 C16.777287,29.2956566 17.2831824,28.0879898 16.8649536,27.0193192 C16.54874,26.2048474 15.7634068,25.6693865 14.8897105,25.6725325 L14.8897105,25.6725325 Z" id="形状" fill="#D9D9D9"></path>
            </g>
        </g>
    </g>
</svg>