<?xml version="1.0" encoding="UTF-8"?>
<svg width="32px" height="32px" viewBox="0 0 32 32" version="1.1" xmlns="http://www.w3.org/2000/svg" xmlns:xlink="http://www.w3.org/1999/xlink">
    <!-- Generator: Sketch 60.1 (88133) - https://sketch.com -->
    <title>ic_file_word备份</title>
    <desc>Created with Sketch.</desc>
    <g id="备课包" stroke="none" stroke-width="1" fill="none" fill-rule="evenodd">
        <g id="创建备课包-交互" transform="translate(-865.000000, -834.000000)">
            <g id="ic_file_word备份" transform="translate(865.000000, 834.000000)">
                <rect id="矩形备份-2" fill="#D8D8D8" opacity="0" x="0" y="0" width="32" height="32"></rect>
                <g id="音频备份" transform="translate(1.333333, 0.000000)" fill="#2B9DF0">
                    <path d="M23.3570937,0 L29.3333333,6.02329654 L29.3333333,29.3333333 C29.3333333,30.8060927 28.139426,32 26.6666667,32 L2.66666667,32 C1.19390733,32 0,30.8060927 0,29.3333333 L0,2.66666667 C0,1.19390733 1.19390733,0 2.66666667,0 L23.3570937,0 Z M22.8013333,1.33333333 L2.66666667,1.33333333 C1.9637588,1.33333333 1.38788992,1.87725186 1.33699049,2.56715844 L1.33333333,2.66666667 L1.33333333,29.3333333 C1.33333333,30.0362412 1.87725186,30.6121101 2.56715844,30.6630095 L2.66666667,30.6666667 L26.6666667,30.6666667 C27.3695745,30.6666667 27.9454434,30.1227481 27.9963428,29.4328416 L28,29.3333333 L28,6.572 L22.8013333,1.33333333 Z" id="矩形" fill-rule="nonzero"></path>
                    <path d="M22,0 L29.3333333,7.33333333 L25,7.33333333 C23.3431458,7.33333333 22,5.99018758 22,4.33333333 L22,0 L22,0 Z" id="矩形"></path>
                    <path d="M22,24 C22.5522847,24 23,24.4477153 23,25 C23,25.5522847 22.5522847,26 22,26 L8,26 C7.44771525,26 7,25.5522847 7,25 C7,24.4477153 7.44771525,24 8,24 L22,24 Z M18,11 C18.5522847,11 19,11.4477153 19,12 C19,12.5522847 18.5522847,13 18,13 L14,13 L14,22 C14,22.5522847 13.5522847,23 13,23 C12.4477153,23 12,22.5522847 12,22 L12,13 L8,13 C7.44771525,13 7,12.5522847 7,12 C7,11.4477153 7.44771525,11 8,11 L18,11 Z M21,20.5 C21.5522847,20.5 22,20.9477153 22,21.5 C22,22.0522847 21.5522847,22.5 21,22.5 L17,22.5 C16.4477153,22.5 16,22.0522847 16,21.5 C16,20.9477153 16.4477153,20.5 17,20.5 L21,20.5 Z M20,17 C20.5522847,17 21,17.4477153 21,18 C21,18.5522847 20.5522847,19 20,19 L17,19 C16.4477153,19 16,18.5522847 16,18 C16,17.4477153 16.4477153,17 17,17 L20,17 Z" id="形状结合"></path>
                </g>
            </g>
        </g>
    </g>
</svg>

