<?xml version="1.0" encoding="UTF-8"?>
<svg width="32px" height="32px" viewBox="0 0 32 32" version="1.1" xmlns="http://www.w3.org/2000/svg" xmlns:xlink="http://www.w3.org/1999/xlink">
    <!-- Generator: Sketch 60.1 (88133) - https://sketch.com -->
    <title>ic_file_video</title>
    <desc>Created with Sketch.</desc>
    <g id="备课包" stroke="none" stroke-width="1" fill="none" fill-rule="evenodd">
        <g id="创建备课包-交互" transform="translate(-1163.000000, -834.000000)">
            <g id="ic_file_video" transform="translate(1163.000000, 834.000000)">
                <rect id="矩形备份-2" fill="#D8D8D8" opacity="0" x="0" y="0" width="32" height="32"></rect>
                <g id="音频备份" transform="translate(1.333333, 0.000000)" fill="#8096FF">
                    <path d="M23.3570937,0 L29.3333333,6.02329654 L29.3333333,29.3333333 C29.3333333,30.8060927 28.139426,32 26.6666667,32 L2.66666667,32 C1.19390733,32 0,30.8060927 0,29.3333333 L0,2.66666667 C0,1.19390733 1.19390733,0 2.66666667,0 L23.3570937,0 Z M22.8013333,1.33333333 L2.66666667,1.33333333 C1.9637588,1.33333333 1.38788992,1.87725186 1.33699049,2.56715844 L1.33333333,2.66666667 L1.33333333,29.3333333 C1.33333333,30.0362412 1.87725186,30.6121101 2.56715844,30.6630095 L2.66666667,30.6666667 L26.6666667,30.6666667 C27.3695745,30.6666667 27.9454434,30.1227481 27.9963428,29.4328416 L28,29.3333333 L28,6.572 L22.8013333,1.33333333 Z" id="矩形" fill-rule="nonzero"></path>
                    <path d="M22,0 L29.3333333,7.33333333 L25,7.33333333 C23.3431458,7.33333333 22,5.99018758 22,4.33333333 L22,0 L22,0 Z" id="矩形"></path>
                    <path d="M16.1470668,12.4725602 L20.8705441,19.0854285 C21.1915531,19.5348411 21.0874615,20.1593911 20.6380489,20.4804001 C20.4684481,20.6015435 20.2652337,20.6666667 20.0568107,20.6666667 L10.609856,20.6666667 C10.0575712,20.6666667 9.60985599,20.2189514 9.60985599,19.6666667 C9.60985599,19.4582437 9.67497912,19.2550292 9.79612252,19.0854285 L14.5195999,12.4725602 C14.8406089,12.0231476 15.4651589,11.9190559 15.9145715,12.2400649 C16.004367,12.3042046 16.0829271,12.3827647 16.1470668,12.4725602 Z" id="三角形" transform="translate(15.333333, 16.000000) rotate(-270.000000) translate(-15.333333, -16.000000) "></path>
                    <path d="M5,24 C5.55228475,24 6,24.4477153 6,25 L6,25.6666667 C6,26.2189514 5.55228475,26.6666667 5,26.6666667 L4.33333333,26.6666667 C3.78104858,26.6666667 3.33333333,26.2189514 3.33333333,25.6666667 L3.33333333,25 C3.33333333,24.4477153 3.78104858,24 4.33333333,24 L5,24 Z M25,24 C25.5522847,24 26,24.4477153 26,25 L26,25.6666667 C26,26.2189514 25.5522847,26.6666667 25,26.6666667 L24.3333333,26.6666667 C23.7810486,26.6666667 23.3333333,26.2189514 23.3333333,25.6666667 L23.3333333,25 C23.3333333,24.4477153 23.7810486,24 24.3333333,24 L25,24 Z M5,18 C5.55228475,18 6,18.4477153 6,19 L6,19.6666667 C6,20.2189514 5.55228475,20.6666667 5,20.6666667 L4.33333333,20.6666667 C3.78104858,20.6666667 3.33333333,20.2189514 3.33333333,19.6666667 L3.33333333,19 C3.33333333,18.4477153 3.78104858,18 4.33333333,18 L5,18 Z M25,18 C25.5522847,18 26,18.4477153 26,19 L26,19.6666667 C26,20.2189514 25.5522847,20.6666667 25,20.6666667 L24.3333333,20.6666667 C23.7810486,20.6666667 23.3333333,20.2189514 23.3333333,19.6666667 L23.3333333,19 C23.3333333,18.4477153 23.7810486,18 24.3333333,18 L25,18 Z M5,12 C5.55228475,12 6,12.4477153 6,13 L6,13.6666667 C6,14.2189514 5.55228475,14.6666667 5,14.6666667 L4.33333333,14.6666667 C3.78104858,14.6666667 3.33333333,14.2189514 3.33333333,13.6666667 L3.33333333,13 C3.33333333,12.4477153 3.78104858,12 4.33333333,12 L5,12 Z M25,12 C25.5522847,12 26,12.4477153 26,13 L26,13.6666667 C26,14.2189514 25.5522847,14.6666667 25,14.6666667 L24.3333333,14.6666667 C23.7810486,14.6666667 23.3333333,14.2189514 23.3333333,13.6666667 L23.3333333,13 C23.3333333,12.4477153 23.7810486,12 24.3333333,12 L25,12 Z M5,6 C5.55228475,6 6,6.44771525 6,7 L6,7.66666667 C6,8.21895142 5.55228475,8.66666667 5,8.66666667 L4.33333333,8.66666667 C3.78104858,8.66666667 3.33333333,8.21895142 3.33333333,7.66666667 L3.33333333,7 C3.33333333,6.44771525 3.78104858,6 4.33333333,6 L5,6 Z" id="形状结合"></path>
                </g>
            </g>
        </g>
    </g>
</svg>
