<?xml version="1.0" encoding="UTF-8"?>
<svg width="32px" height="32px" viewBox="0 0 32 32" version="1.1" xmlns="http://www.w3.org/2000/svg" xmlns:xlink="http://www.w3.org/1999/xlink">
    <!-- Generator: Sketch 60.1 (88133) - https://sketch.com -->
    <title>ic_file_gsp</title>
    <desc>Created with Sketch.</desc>
    <g id="备课包" stroke="none" stroke-width="1" fill="none" fill-rule="evenodd">
        <g id="创建备课包-交互" transform="translate(-790.000000, -834.000000)">
            <g id="ic_file_gsp" transform="translate(790.000000, 834.000000)">
                <rect id="矩形备份-2" fill="#D8D8D8" opacity="0" x="0" y="0" width="32" height="32"></rect>
                <g id="音频备份" transform="translate(1.333333, 0.000000)" fill="#FF7A45">
                    <path d="M23.3570937,0 L29.3333333,6.02329654 L29.3333333,29.3333333 C29.3333333,30.8060927 28.139426,32 26.6666667,32 L2.66666667,32 C1.19390733,32 0,30.8060927 0,29.3333333 L0,2.66666667 C0,1.19390733 1.19390733,0 2.66666667,0 L23.3570937,0 Z M22.8013333,1.33333333 L2.66666667,1.33333333 C1.9637588,1.33333333 1.38788992,1.87725186 1.33699049,2.56715844 L1.33333333,2.66666667 L1.33333333,29.3333333 C1.33333333,30.0362412 1.87725186,30.6121101 2.56715844,30.6630095 L2.66666667,30.6666667 L26.6666667,30.6666667 C27.3695745,30.6666667 27.9454434,30.1227481 27.9963428,29.4328416 L28,29.3333333 L28,6.572 L22.8013333,1.33333333 Z" id="矩形" fill-rule="nonzero"></path>
                    <path d="M22,0 L29.3333333,7.33333333 L25,7.33333333 C23.3431458,7.33333333 22,5.99018758 22,4.33333333 L22,0 L22,0 Z" id="矩形"></path>
                    <path d="M21.4998671,19.1996291 C21.1599613,18.8763642 20.6219055,18.890437 20.2985379,19.2304456 C19.7306928,19.8282854 19.0943324,20.332443 18.4085629,20.7406587 L16.363992,15.993585 C17.1482715,15.3141843 17.6460604,14.3125459 17.6467795,13.1964756 C17.6482175,11.5689544 16.594602,10.1837535 15.1313327,9.68637546 L15.1313327,8.18941347 C15.1313327,7.53230331 14.5989266,7 13.9420219,7 C13.2850145,7 12.7525057,7.53230341 12.7525057,8.18941347 L12.7525057,9.68575912 C11.2923179,10.1824181 10.2377779,11.5654618 10.2370589,13.1909286 C10.2358262,14.3532236 10.7735738,15.3920472 11.6130149,16.0722697 L7.72705646,25.835856 C7.55355968,26.272012 7.76670698,26.7658974 8.20234937,26.9395997 C8.30568731,26.9802774 8.41190149,27 8.51647202,27 C8.85401521,27 9.17347939,26.7972276 9.30547671,26.4645123 L10.635927,23.1229783 C11.6953977,23.4767515 12.8010931,23.6581578 13.9338042,23.6588769 C13.9376049,23.6588769 13.940173,23.6588769 13.9434601,23.6588769 C15.1940957,23.6588769 16.4077515,23.4423398 17.5431334,23.027858 L18.9646978,26.3297414 C19.1032692,26.6513628 19.4166728,26.8433494 19.7456901,26.8433494 C19.8577594,26.8433494 19.9719859,26.8210589 20.0810762,26.7738069 C20.512507,26.5884972 20.7116842,26.0887565 20.52545,25.6575313 L19.086012,22.3141483 C19.9779438,21.8085526 20.8009493,21.1684942 21.5308891,20.4005475 C21.8538457,20.0603334 21.8401838,19.5225858 21.4998671,19.1996291 Z M13.9433573,11.1878572 C15.0495663,11.1887817 15.9482776,12.0892393 15.947559,13.1950374 C15.9468396,14.300322 15.0468955,15.1995469 13.9419191,15.1995469 L13.9402756,15.1995469 C13.4042742,15.199136 12.9008356,14.9902002 12.5223064,14.6111575 C12.1439827,14.2319094 11.9355606,13.7279571 11.9360733,13.1922638 C11.9366907,12.0868767 12.8364293,11.1878572 13.9433573,11.1878572 Z M13.9433573,21.959656 C13.9402757,21.959656 13.9377076,21.959656 13.9351396,21.959656 C13.0186574,21.9593478 12.1232332,21.8183111 11.2641723,21.5426063 L13.1473676,16.811968 C13.4020145,16.8681567 13.6673444,16.8985623 13.9389404,16.8988705 L13.942022,16.8988705 C14.2568637,16.8988705 14.5629741,16.8590145 14.8549089,16.7847468 L16.8688688,21.4619699 C15.9433471,21.7880082 14.9579387,21.959656 13.9433573,21.959656 Z" id="形状" fill-rule="nonzero"></path>
                </g>
            </g>
        </g>
    </g>
</svg>