<?xml version="1.0" encoding="UTF-8"?>
<svg width="20px" height="20px" viewBox="0 0 20 20" version="1.1" xmlns="http://www.w3.org/2000/svg" xmlns:xlink="http://www.w3.org/1999/xlink">
    <!-- Generator: Sketch 60.1 (88133) - https://sketch.com -->
    <title>ic_file_ppt备份 9</title>
    <desc>Created with Sketch.</desc>
    <g id="备课包" stroke="none" stroke-width="1" fill="none" fill-rule="evenodd">
        <g id="创建备课包-交互" transform="translate(-1237.000000, -846.000000)">
            <g id="ic_file_ppt备份-9" transform="translate(1237.000000, 846.000000)">
                <rect id="矩形备份-2" fill="#D8D8D8" opacity="0" x="0" y="0" width="20" height="20"></rect>
                <g id="音频备份" transform="translate(0.833333, 0.000000)" fill="#22BA64">
                    <path d="M14.5981836,0 L18.3333333,3.76456034 L18.3333333,18.3333333 C18.3333333,19.2538079 17.5871412,20 16.6666667,20 L1.66666667,20 C0.746192084,20 0,19.2538079 0,18.3333333 L0,1.66666667 C0,0.746192084 0.746192084,0 1.66666667,0 L14.5981836,0 Z M14.2508333,0.833333333 L1.66666667,0.833333333 C1.22734925,0.833333333 0.867431199,1.17328241 0.835619057,1.60447402 L0.833333333,1.66666667 L0.833333333,18.3333333 C0.833333333,18.7726507 1.17328241,19.1325688 1.60447402,19.1643809 L1.66666667,19.1666667 L16.6666667,19.1666667 C17.1059841,19.1666667 17.4659021,18.8267176 17.4977143,18.395526 L17.5,18.3333333 L17.5,4.1075 L14.2508333,0.833333333 Z" id="矩形" fill-rule="nonzero"></path>
                    <path d="M8.75894134,10.3948498 L8.75894134,6.5 L4.94992847,6.5 L4.94992847,10.3948498 L8.75894134,10.3948498 Z M10.4005722,12.5085837 L10.4005722,8.96781116 L12.7181688,8.96781116 L12.7181688,12.5085837 L13.6623748,12.5085837 L13.6623748,8.09871245 L11.934907,8.09871245 C11.9778255,7.88412017 12.0207439,7.65879828 12.0529328,7.42274678 L13.9091559,7.42274678 L13.9091559,6.5 L9.20958512,6.5 L9.20958512,7.42274678 L11.130186,7.42274678 C11.1087268,7.64806867 11.0765379,7.87339056 11.0336195,8.09871245 L9.49928469,8.09871245 L9.49928469,12.5085837 L10.4005722,12.5085837 Z M7.77181688,8.06652361 L5.93705293,8.06652361 L5.93705293,7.33690987 L7.77181688,7.33690987 L7.77181688,8.06652361 Z M7.77181688,9.55793991 L5.93705293,9.55793991 L5.93705293,8.83905579 L7.77181688,8.83905579 L7.77181688,9.55793991 Z M9.61731044,14.6330472 C10.4434907,14.332618 11.0443491,13.8927039 11.4198856,13.3347639 C11.7846924,12.7339056 11.9885551,11.9291845 12.0314735,10.9206009 L12.0314735,9.37553648 L11.0872675,9.37553648 L11.0872675,10.9206009 C11.0658083,11.6502146 10.9155937,12.251073 10.6473534,12.7017167 C10.3683834,13.1309013 9.84263233,13.4849785 9.07010014,13.7639485 L9.61731044,14.6330472 Z M4.8962804,16.0708155 C5.2074392,15.5450644 5.45422031,14.9763948 5.63662375,14.3540773 C6.03361946,14.8798283 6.48426323,15.2553648 6.99928469,15.4699571 C7.61240548,15.7254241 9.09168102,15.8641062 11.4556486,15.8767347 L13.9949928,15.8776824 L14.1666667,14.8690987 C13.6548641,14.9077253 12.9084049,14.92897 11.9194671,14.9328326 L11.5808298,14.9334764 C9.45636624,14.9334764 8.09370529,14.8369099 7.51430615,14.6652361 C7.50357654,14.6652361 7.49284692,14.6545064 7.4713877,14.6545064 L7.4713877,13.6995708 L8.85550787,13.6995708 L8.85550787,12.7982833 L7.4713877,12.7982833 L7.4713877,11.8755365 L9.12374821,11.8755365 L9.12374821,10.9527897 L4.53147353,10.9527897 L4.53147353,11.8755365 L6.58082976,11.8755365 L6.58082976,14.1716738 C6.32331903,13.9570815 6.07653791,13.6995708 5.85121602,13.3776824 C5.90486409,13.055794 5.93705293,12.7124464 5.95851216,12.3583691 L5.05722461,12.2403433 C5.00357654,13.4098712 4.70314735,14.472103 4.16666667,15.416309 L4.8962804,16.0708155 Z M13.3404864,14.6437768 L14.0486409,13.9356223 C13.6087268,13.4420601 13.0722461,12.9484979 12.4284692,12.4656652 L11.741774,13.1094421 C12.4284692,13.6566524 12.9542203,14.1716738 13.3404864,14.6437768 Z" id="题" fill-rule="nonzero"></path>
                    <path d="M13.75,0 L18.3333333,4.58333333 L16.75,4.58333333 C15.0931458,4.58333333 13.75,3.24018758 13.75,1.58333333 L13.75,0 L13.75,0 Z" id="矩形"></path>
                </g>
            </g>
        </g>
    </g>
</svg>
