<?xml version="1.0" encoding="UTF-8"?>
<svg width="32px" height="32px" viewBox="0 0 32 32" version="1.1" xmlns="http://www.w3.org/2000/svg" xmlns:xlink="http://www.w3.org/1999/xlink">
    <!-- Generator: Sketch 60.1 (88133) - https://sketch.com -->
    <title>ic_file_picture备份</title>
    <desc>Created with Sketch.</desc>
    <g id="备课包" stroke="none" stroke-width="1" fill="none" fill-rule="evenodd">
        <g id="创建备课包-交互" transform="translate(-1014.000000, -834.000000)">
            <g id="ic_file_picture备份" transform="translate(1014.000000, 834.000000)">
                <rect id="矩形备份-2" fill="#D8D8D8" opacity="0" x="0" y="0" width="32" height="32"></rect>
                <g id="音频备份" transform="translate(1.333333, 0.000000)" fill="#44D7B6">
                    <path d="M23.3570937,0 L29.3333333,6.02329654 L29.3333333,29.3333333 C29.3333333,30.8060927 28.139426,32 26.6666667,32 L2.66666667,32 C1.19390733,32 0,30.8060927 0,29.3333333 L0,2.66666667 C0,1.19390733 1.19390733,0 2.66666667,0 L23.3570937,0 Z M22.8013333,1.33333333 L2.66666667,1.33333333 C1.9637588,1.33333333 1.38788992,1.87725186 1.33699049,2.56715844 L1.33333333,2.66666667 L1.33333333,29.3333333 C1.33333333,30.0362412 1.87725186,30.6121101 2.56715844,30.6630095 L2.66666667,30.6666667 L26.6666667,30.6666667 C27.3695745,30.6666667 27.9454434,30.1227481 27.9963428,29.4328416 L28,29.3333333 L28,6.572 L22.8013333,1.33333333 Z" id="矩形" fill-rule="nonzero"></path>
                    <path d="M12.7198304,12.0578908 C12.8301515,12.1123376 12.9194475,12.2016335 12.9738943,12.3119547 L14.64376,15.6954723 C14.7252437,15.8605762 14.8827521,15.9750127 15.064955,16.0014884 L18.7988884,16.5440607 C19.1046267,16.588487 19.316462,16.8723516 19.2720356,17.17809 C19.2543448,17.2998366 19.1970132,17.4123561 19.1089165,17.4982292 L16.407017,20.1319303 C16.2751737,20.2604458 16.2150108,20.445608 16.2461348,20.6270747 L16.8839668,24.3459204 C16.9361931,24.6504234 16.7316825,24.9396097 16.4271795,24.991836 C16.3059249,25.0126328 16.181196,24.9928777 16.0723025,24.935629 L12.732571,23.1798282 C12.5696037,23.0941513 12.3749127,23.0941513 12.2119454,23.1798282 L8.87221384,24.935629 C8.59875314,25.0793958 8.26052342,24.9742581 8.11675662,24.7007974 C8.05950793,24.5919039 8.03975282,24.4671751 8.06054963,24.3459204 L8.6983816,20.6270747 C8.72950558,20.445608 8.66934273,20.2604458 8.53749943,20.1319303 L5.83559986,17.4982292 C5.6143655,17.282579 5.60983865,16.9284141 5.82548885,16.7071797 C5.91136189,16.619083 6.02388138,16.5617515 6.145628,16.5440607 L9.87956137,16.0014884 C10.0617643,15.9750127 10.2192727,15.8605762 10.3007564,15.6954723 L11.9706221,12.3119547 C12.1073525,12.0349087 12.4427844,11.9211605 12.7198304,12.0578908 Z M22.9166667,22 C23.3308802,22 23.6666667,22.3357864 23.6666667,22.75 C23.6666667,23.1642136 23.3308802,23.5 22.9166667,23.5 L19.4166667,23.5 C19.0024531,23.5 18.6666667,23.1642136 18.6666667,22.75 C18.6666667,22.3357864 19.0024531,22 19.4166667,22 L22.9166667,22 Z M22.9166667,19 C23.3308802,19 23.6666667,19.3357864 23.6666667,19.75 C23.6666667,20.1642136 23.3308802,20.5 22.9166667,20.5 L20.4166667,20.5 C20.0024531,20.5 19.6666667,20.1642136 19.6666667,19.75 C19.6666667,19.3357864 20.0024531,19 20.4166667,19 L22.9166667,19 Z M22.9166667,13 C23.3308802,13 23.6666667,13.3357864 23.6666667,13.75 C23.6666667,14.1642136 23.3308802,14.5 22.9166667,14.5 L17.4166667,14.5 C17.0024531,14.5 16.6666667,14.1642136 16.6666667,13.75 C16.6666667,13.3357864 17.0024531,13 17.4166667,13 L22.9166667,13 Z" id="形状结合"></path>
                    <path d="M22,0 L29.3333333,7.33333333 L25,7.33333333 C23.3431458,7.33333333 22,5.99018758 22,4.33333333 L22,0 L22,0 Z" id="矩形"></path>
                </g>
            </g>
        </g>
    </g>
</svg>
