<?xml version="1.0" encoding="UTF-8"?>
<svg width="32px" height="32px" viewBox="0 0 32 32" version="1.1" xmlns="http://www.w3.org/2000/svg" xmlns:xlink="http://www.w3.org/1999/xlink">
    <!-- Generator: Sketch 60.1 (88133) - https://sketch.com -->
    <title>ic_file_picture</title>
    <desc>Created with Sketch.</desc>
    <g id="备课包" stroke="none" stroke-width="1" fill="none" fill-rule="evenodd">
        <g id="创建备课包-交互" transform="translate(-939.000000, -834.000000)">
            <g id="ic_file_picture" transform="translate(939.000000, 834.000000)">
                <rect id="矩形备份-2" fill="#D8D8D8" opacity="0" x="0" y="0" width="32" height="32"></rect>
                <g id="音频备份" transform="translate(1.333333, 0.000000)" fill="#AF7AFB">
                    <path d="M23.3570937,0 L29.3333333,6.02329654 L29.3333333,29.3333333 C29.3333333,30.8060927 28.139426,32 26.6666667,32 L2.66666667,32 C1.19390733,32 0,30.8060927 0,29.3333333 L0,2.66666667 C0,1.19390733 1.19390733,0 2.66666667,0 L23.3570937,0 Z M22.8013333,1.33333333 L2.66666667,1.33333333 C1.9637588,1.33333333 1.38788992,1.87725186 1.33699049,2.56715844 L1.33333333,2.66666667 L1.33333333,29.3333333 C1.33333333,30.0362412 1.87725186,30.6121101 2.56715844,30.6630095 L2.66666667,30.6666667 L26.6666667,30.6666667 C27.3695745,30.6666667 27.9454434,30.1227481 27.9963428,29.4328416 L28,29.3333333 L28,6.572 L22.8013333,1.33333333 Z" id="矩形" fill-rule="nonzero"></path>
                    <path d="M22,0 L29.3333333,7.33333333 L25,7.33333333 C23.3431458,7.33333333 22,5.99018758 22,4.33333333 L22,0 L22,0 Z" id="矩形"></path>
                    <path d="M12.8944272,13.7888544 L17.2763932,22.5527864 C17.5233825,23.0467649 17.3231581,23.6474379 16.8291796,23.8944272 C16.6903242,23.9638549 16.5372111,24 16.381966,24 L7.61803399,24 C7.06574924,24 6.61803399,23.5522847 6.61803399,23 C6.61803399,22.8447549 6.65417908,22.6916418 6.7236068,22.5527864 L11.1055728,13.7888544 C11.3525621,13.2948759 11.9532351,13.0946515 12.4472136,13.3416408 C12.640741,13.4384045 12.7976635,13.595327 12.8944272,13.7888544 Z" id="三角形" transform="translate(12.000000, 18.000000) rotate(-360.000000) translate(-12.000000, -18.000000) "></path>
                    <path d="M19.5304456,17.4807638 L22.4560752,22.496129 C22.7343555,22.9731809 22.5732193,23.5854986 22.0961674,23.8637789 C21.9432313,23.9529916 21.769351,24 21.5922963,24 L15.741037,24 C15.1887522,24 14.741037,23.5522847 14.741037,23 C14.741037,22.8229454 14.7880454,22.649065 14.8772581,22.496129 L17.8028878,17.4807638 C18.081168,17.0037119 18.6934858,16.8425757 19.1705377,17.120856 C19.3195413,17.2077747 19.4435268,17.3317602 19.5304456,17.4807638 Z" id="三角形备份" transform="translate(18.666667, 20.000000) rotate(-360.000000) translate(-18.666667, -20.000000) "></path>
                    <circle id="椭圆形" cx="19.6666667" cy="11.6666667" r="2.33333333"></circle>
                </g>
            </g>
        </g>
    </g>
</svg>
