<?xml version="1.0" encoding="UTF-8"?>
<svg width="32px" height="32px" viewBox="0 0 32 32" version="1.1" xmlns="http://www.w3.org/2000/svg" xmlns:xlink="http://www.w3.org/1999/xlink">
    <!-- Generator: Sketch 60.1 (88133) - https://sketch.com -->
    <title>ic_file_audio</title>
    <desc>Created with Sketch.</desc>
    <g id="备课包" stroke="none" stroke-width="1" fill="none" fill-rule="evenodd">
        <g id="创建备课包-交互" transform="translate(-642.000000, -834.000000)">
            <g id="ic_file_audio" transform="translate(642.000000, 834.000000)">
                <rect id="矩形" fill="#D8D8D8" opacity="0" x="0" y="0" width="32" height="32"></rect>
                <g id="音频" transform="translate(1.333333, 0.000000)" fill="#E583CA">
                    <path d="M23.3570937,0 L29.3333333,6.02329654 L29.3333333,29.3333333 C29.3333333,30.8060927 28.139426,32 26.6666667,32 L2.66666667,32 C1.19390733,32 0,30.8060927 0,29.3333333 L0,2.66666667 C0,1.19390733 1.19390733,0 2.66666667,0 L23.3570937,0 Z M22.8013333,1.33333333 L2.66666667,1.33333333 C1.9637588,1.33333333 1.38788992,1.87725186 1.33699049,2.56715844 L1.33333333,2.66666667 L1.33333333,29.3333333 C1.33333333,30.0362412 1.87725186,30.6121101 2.56715844,30.6630095 L2.66666667,30.6666667 L26.6666667,30.6666667 C27.3695745,30.6666667 27.9454434,30.1227481 27.9963428,29.4328416 L28,29.3333333 L28,6.572 L22.8013333,1.33333333 Z" id="矩形" fill-rule="nonzero"></path>
                    <path d="M22,0 L29.3333333,7.33333333 L25,7.33333333 C23.3431458,7.33333333 22,5.99018758 22,4.33333333 L22,0 L22,0 Z" id="矩形"></path>
                    <path d="M19.6631884,9.3936232 L12.0515942,11.5113043 C11.1281159,11.7507246 10.3808696,12.6243478 10.3808696,13.4643478 L10.3808696,20.764058 C10.3808696,20.764058 9.82956521,20.426087 8.60057972,20.5843478 C6.79594203,20.8173913 5.33333333,22.0765217 5.33333333,23.3971015 C5.33333333,24.7176812 6.79594203,25.5263768 8.60057972,25.293913 C10.4057971,25.062029 11.7286957,23.8411594 11.7286956,22.52 L11.7286956,16.2875362 C11.7286956,15.702029 12.5037681,15.4510145 12.5037681,15.4510145 L19.2353623,13.5327536 C19.2353623,13.5327536 19.9797102,13.3066667 19.9797102,13.9327536 L19.9797102,18.9397102 C19.9797102,18.9397102 19.2927536,18.5814493 18.0649275,18.7176812 C16.2608696,18.9153623 14.7965218,20.1478261 14.7965217,21.4684058 C14.7965217,22.7889855 16.2597101,23.6249275 18.0649275,23.4255072 C19.8707246,23.2266667 21.3333333,21.9953623 21.3333333,20.6736232 L21.3333333,10.4794203 C21.3321739,9.64115942 20.5849275,9.15594203 19.6631884,9.3936232 Z" id="路径" fill-rule="nonzero"></path>
                </g>
            </g>
        </g>
    </g>
</svg>
