<?xml version="1.0" encoding="UTF-8"?>
<svg width="48px" height="48px" viewBox="0 0 48 48" version="1.1" xmlns="http://www.w3.org/2000/svg" xmlns:xlink="http://www.w3.org/1999/xlink">
    <!-- Generator: Sketch 54.1 (76490) - https://sketchapp.com -->
    <title>上传素材icon</title>
    <desc>Created with Sketch.</desc>
    <g id="icon" stroke="none" stroke-width="1" fill="none" fill-rule="evenodd">
        <g transform="translate(-546.000000, -218.000000)" fill="#D9D9D9" fill-rule="nonzero" id="上传素材icon" stroke="#FFFFFF" stroke-width="1.5">
            <path d="M548.727273,227.951807 C548.727273,225.903422 550.437818,224.240964 552.545455,224.240964 L556.909091,224.240964 C557.037091,224.240964 557.218909,224.240964 557.454545,224.240964 L557.454545,223.710843 C557.454545,221.662458 559.165091,220 561.272727,220 L580.909091,220 C580.95871,220 581.069255,220.010602 581.240727,220.031807 L590.792727,228.948434 C591.100364,229.245301 591.272727,229.650313 591.272727,230.072289 L591.272727,251.277108 L591.818182,251.277108 C593.023167,251.277108 594,252.226481 594,253.39759 L594,261.879518 C594,263.050628 593.023167,264 591.818182,264 L548.181818,264 C546.976833,264 546,263.050628 546,261.879518 L546,253.39759 C546,252.226481 546.976833,251.277108 548.181818,251.277108 L548.727273,251.277108 L548.727273,227.951807 Z M552,251.277108 L557.454545,251.277108 L557.454545,227.421671 C557.214796,227.421661 557.032978,227.421666 556.909091,227.421687 L552.545455,227.421687 C552.244208,227.421687 552,227.65903 552,227.951807 L552,251.277108 Z M588,231.662651 L583.090909,231.662651 C580.982185,231.662651 579.272727,230.001249 579.272727,227.951807 L579.272727,223.180723 L561.272727,223.180723 C560.971481,223.180723 560.727273,223.418066 560.727273,223.710843 L560.727273,251.277108 C560.727475,251.390947 560.727475,251.558465 560.727273,251.779663 L565.300364,253.289446 C565.522716,253.361239 565.755516,253.397755 565.989818,253.39759 L574.010182,253.39759 C574.244484,253.397755 574.477284,253.361239 574.699636,253.289446 L580.573091,251.385253 C580.795444,251.31346 581.028243,251.276944 581.262545,251.277108 L588,251.277108 L588,231.662651 Z M585.687273,228.481928 L582.545455,225.428434 L582.545455,227.951807 C582.545455,228.244434 582.789818,228.481928 583.090909,228.481928 L585.687273,228.481928 L585.687273,228.481928 Z M549.272727,254.457831 L549.272727,260.819277 L590.727273,260.819277 L590.727273,254.457831 L581.439273,254.457831 L575.733818,256.306892 C575.177997,256.486735 574.595996,256.578383 574.010182,256.578313 L565.989818,256.578313 C565.404004,256.578383 564.822003,256.486735 564.266182,256.306892 L558.560727,254.457831 L549.272727,254.457831 Z M565.636364,231.662651 C564.732625,231.662651 564,230.950622 564,230.072289 C564,229.193957 564.732625,228.481928 565.636364,228.481928 L574.363636,228.481928 C575.267375,228.481928 576,229.193957 576,230.072289 C576,230.950622 575.267375,231.662651 574.363636,231.662651 L565.636364,231.662651 L565.636364,231.662651 Z M565.636364,238.024096 C564.732625,238.024096 564,237.312067 564,236.433735 C564,235.555403 564.732625,234.843373 565.636364,234.843373 L574.363636,234.843373 C575.267375,234.843373 576,235.555403 576,236.433735 C576,237.312067 575.267375,238.024096 574.363636,238.024096 L565.636364,238.024096 L565.636364,238.024096 Z M565.636364,244.385542 C564.732625,244.385542 564,243.673513 564,242.795181 C564,241.916848 564.732625,241.204819 565.636364,241.204819 L583.090909,241.204819 C583.994648,241.204819 584.727273,241.916848 584.727273,242.795181 C584.727273,243.673513 583.994648,244.385542 583.090909,244.385542 L565.636364,244.385542 Z"></path>
        </g>
    </g>
</svg>