<?xml version="1.0" encoding="UTF-8"?>
<svg width="20px" height="20px" viewBox="0 0 20 20" version="1.1" xmlns="http://www.w3.org/2000/svg" xmlns:xlink="http://www.w3.org/1999/xlink">
    <!-- Generator: Sketch 54.1 (76490) - https://sketchapp.com -->
    <title>压缩文件icon</title>
    <desc>Created with Sketch.</desc>
    <g id="icon" stroke="none" stroke-width="1" fill="none" fill-rule="evenodd">
        <g transform="translate(-403.000000, -64.000000)" fill-rule="nonzero" id="压缩文件icon">
            <g transform="translate(404.000000, 64.000000)">
                <polygon id="路径" fill="#FFFFFF" points="5.37244565 -1.95399252e-14 12.2202717 -1.95399252e-14 12.2202717 13.6956522 5.37244565 13.6956522"></polygon>
                <path d="M8.95940217,9.23380435 L7.69695652,9.23380435 C7.49331522,9.23380435 7.33043478,9.39391304 7.28967391,9.59413043 L7.00467391,12.7565217 L7.00467391,12.8365761 C7.00467391,13.2769565 7.37119565,13.6372826 7.81907609,13.6372826 L10.181087,13.6372826 C10.6291304,13.5971739 10.9548913,13.1970652 10.9141304,12.7565217 L10.6291304,9.59413043 C10.6291304,9.43402174 10.5068478,9.3138587 10.3847283,9.27391304 C10.5070109,9.1938587 10.5885326,9.07369565 10.5885326,8.91358696 L10.5885326,8.43326087 C10.5885326,8.19309783 10.4254891,8.03298913 10.181087,8.03298913 L8.95940217,8.03298913 L8.95940217,9.23380435 Z M8.95940217,0.0267391304 L13.072663,0.0267391304 L17.9188043,4.87043478 L17.9188043,18.3720109 C17.9188043,19.2527717 17.1857609,19.9732609 16.29,19.9732609 L1.62896739,19.9732609 C0.733043478,19.9732609 3.37507799e-14,19.2526087 3.37507799e-14,18.3721739 L3.37507799e-14,1.62782609 C3.37507799e-14,0.747065217 0.733043478,0.026576087 1.62880435,0.026576087 L7.73771739,0.026576087 C7.49331522,0.026576087 7.33043478,0.186684783 7.33043478,0.426847826 L7.33043478,0.907173913 C7.33043478,1.14733696 7.49331522,1.30744565 7.73771739,1.30744565 L8.95940217,1.30744565 L8.95940217,2.50842391 L10.181087,2.50842391 C10.4254891,2.50842391 10.5883696,2.34831522 10.5883696,2.10815217 L10.5883696,1.62798913 C10.5883696,1.38766304 10.4254891,1.22755435 10.181087,1.22755435 L8.95940217,1.22755435 L8.95940217,0.0267391304 Z M9.36668478,10.8352174 C9.61092391,10.8352174 9.77396739,10.9953261 9.77396739,11.2354891 L9.77396739,12.4364674 C9.77396739,12.6766304 9.61092391,12.8367391 9.36668478,12.8367391 L8.55211957,12.8367391 C8.30788043,12.8367391 8.14483696,12.6766304 8.14483696,12.4364674 L8.14483696,11.2353261 C8.14483696,10.995163 8.30788043,10.8350543 8.55211957,10.8350543 L9.36668478,10.8352174 Z M7.33043478,2.82896739 L7.33043478,3.30945652 C7.33043478,3.54961957 7.49331522,3.70972826 7.73771739,3.70972826 L8.95940217,3.70972826 L8.95940217,2.42869565 L7.73771739,2.42869565 C7.49331522,2.42869565 7.33043478,2.58880435 7.33043478,2.82896739 Z M7.33043478,5.23092391 L7.33043478,5.71125 C7.33043478,5.95141304 7.49331522,6.11152174 7.73771739,6.11152174 L8.95940217,6.11152174 L8.95940217,4.83065217 L7.73771739,4.83065217 C7.49331522,4.83065217 7.33043478,4.99076087 7.33043478,5.23092391 Z M7.33043478,7.23244565 L7.33043478,7.71277174 C7.33043478,7.95293478 7.49331522,8.11320652 7.73771739,8.11320652 L8.95940217,8.11320652 L8.95940217,6.83217391 L7.73771739,6.83217391 C7.49331522,6.83217391 7.33043478,6.99228261 7.33043478,7.23244565 Z M8.95940217,4.91038043 L10.181087,4.91038043 C10.4254891,4.91038043 10.5883696,4.75027174 10.5883696,4.50994565 L10.5883696,4.02961957 C10.5883696,3.78945652 10.4254891,3.62934783 10.181087,3.62934783 L8.95940217,3.62934783 L8.95940217,4.91038043 Z M8.95940217,6.0311413 L8.95940217,7.31217391 L10.181087,7.31217391 C10.4254891,7.31217391 10.5883696,7.15206522 10.5883696,6.91190217 L10.5883696,6.43157609 C10.5883696,6.19125 10.4254891,6.0311413 10.181087,6.0311413 L8.95940217,6.0311413 Z" id="形状" fill="#F7B500"></path>
                <path d="M13.0319022,0.0267391304 L17.9188043,4.83048913 L14.6610326,4.83048913 C13.7651087,4.83048913 13.0320652,4.10983696 13.0320652,3.22923913 L13.0320652,0.0267391304 L13.0319022,0.0267391304 Z" id="路径" fill="#FCE3A7"></path>
            </g>
        </g>
    </g>
</svg>