<?xml version="1.0" encoding="UTF-8"?>
<svg width="25px" height="24px" viewBox="0 0 25 24" version="1.1" xmlns="http://www.w3.org/2000/svg" xmlns:xlink="http://www.w3.org/1999/xlink">
    <!-- Generator: Sketch 63.1 (92452) - https://sketch.com -->
    <title>ic_bold</title>
    <desc>Created with Sketch.</desc>
    <g id="页面-1" stroke="none" stroke-width="1" fill="none" fill-rule="evenodd">
        <g id="试题在线编辑-工具栏icon" transform="translate(-143.000000, -50.000000)">
            <g id="ic_bold" transform="translate(143.000000, 49.988863)">
                <rect id="矩形" fill-opacity="0" fill="#F5F5F5" x="0" y="0" width="24" height="24"></rect>
                <path d="M12.5241379,17 C13.5724138,17 14.4,16.8039216 14.9793103,16.4117647 C15.6551724,15.9355742 16,15.1932773 16,14.1848739 C16,13.512605 15.8344828,12.9663866 15.5172414,12.5742297 C15.1862069,12.1680672 14.7034483,11.9019608 14.0551724,11.7759104 C14.5517241,11.5798319 14.9241379,11.3137255 15.1862069,10.9495798 C15.4482759,10.557423 15.5862069,10.0812325 15.5862069,9.5210084 C15.5862069,8.76470588 15.3241379,8.16246499 14.8137931,7.71428571 C14.262069,7.23809524 13.4896552,7 12.5103448,7 L8,7 L8,17 L12.5241379,17 Z M12.0827586,11.2016807 L9.6137931,11.2016807 L9.6137931,8.34453782 L12.1103448,8.34453782 C12.7724138,8.34453782 13.2413793,8.45658263 13.5448276,8.68067227 C13.8206897,8.8907563 13.9724138,9.24089636 13.9724138,9.71708683 C13.9724138,10.2352941 13.8206897,10.6134454 13.5448276,10.8515406 C13.2551724,11.0756303 12.7724138,11.2016807 12.0827586,11.2016807 Z M12.2896552,15.6554622 L9.6137931,15.6554622 L9.6137931,12.5462185 L12.3310345,12.5462185 C13.0482759,12.5462185 13.5724138,12.6722689 13.9034483,12.9243697 C14.2206897,13.1764706 14.3862069,13.5826331 14.3862069,14.1568627 C14.3862069,14.7170868 14.1655172,15.1092437 13.7241379,15.3613445 C13.3793103,15.557423 12.8965517,15.6554622 12.2896552,15.6554622 Z" id="B" fill="#595959" fill-rule="nonzero"></path>
            </g>
        </g>
    </g>
</svg>