<?xml version="1.0" encoding="UTF-8"?>
<svg width="24px" height="24px" viewBox="0 0 24 24" version="1.1" xmlns="http://www.w3.org/2000/svg" xmlns:xlink="http://www.w3.org/1999/xlink">
    <!-- Generator: Sketch 63.1 (92452) - https://sketch.com -->
    <title>ic_strikeout</title>
    <desc>Created with Sketch.</desc>
    <g id="页面-1" stroke="none" stroke-width="1" fill="none" fill-rule="evenodd">
        <g id="试题在线编辑-工具栏icon" transform="translate(-239.000000, -50.000000)">
            <g id="ic_strikeout" transform="translate(239.000000, 49.988863)">
                <rect id="矩形备份-10" fill-opacity="0" fill="#F5F5F5" x="0" y="0" width="24" height="24"></rect>
                <path d="M11.92,6.808 C13.04,6.808 13.936,7.06 14.58,7.578 C15.252,8.11 15.63,8.908 15.728,9.958 L15.728,9.958 L14.594,9.958 C14.468,9.23 14.188,8.698 13.754,8.348 C13.306,7.984 12.676,7.816 11.864,7.816 C11.122,7.816 10.548,7.928 10.128,8.18 C9.652,8.46 9.414,8.88 9.414,9.454 C9.414,9.958 9.694,10.364 10.268,10.672 C10.52,10.812 11.136,11.022 12.102,11.302 C12.3316935,11.3704194 12.5477393,11.4367062 12.7501371,11.5008606 L18,11.5 L18,12.5 L15.0403388,12.5001845 C15.6451994,12.979883 15.952,13.6042414 15.952,14.382 C15.952,15.25 15.602,15.95 14.902,16.454 C14.202,16.944 13.264,17.196 12.074,17.196 C10.898,17.196 9.974,16.944 9.302,16.44 C8.518,15.838 8.084,14.928 8,13.696 L8,13.696 L9.134,13.696 C9.232,14.564 9.54,15.208 10.044,15.614 C10.506,15.978 11.178,16.174 12.074,16.174 C12.886,16.174 13.558,16.02 14.062,15.712 C14.566,15.404 14.818,14.984 14.818,14.452 C14.818,13.822 14.482,13.332 13.824,12.982 C13.6210408,12.8602245 13.1900521,12.70167 12.5416976,12.5010047 L6,12.5 L6,11.5 L9.53390705,11.5002793 C9.48873044,11.4795715 9.44875556,11.4601333 9.414,11.442 C8.644,10.994 8.266,10.35 8.266,9.51 C8.266,8.642 8.63,7.956 9.372,7.48 C10.03,7.032 10.884,6.808 11.92,6.808 Z" id="形状结合" fill="#595959" fill-rule="nonzero"></path>
            </g>
        </g>
    </g>
</svg>