<?xml version="1.0" encoding="UTF-8"?>
<svg width="24px" height="24px" viewBox="0 0 24 24" version="1.1" xmlns="http://www.w3.org/2000/svg" xmlns:xlink="http://www.w3.org/1999/xlink">
    <!-- Generator: Sketch 63.1 (92452) - https://sketch.com -->
    <title>ic_format-match</title>
    <desc>Created with Sketch.</desc>
    <g id="页面-1" stroke="none" stroke-width="1" fill="none" fill-rule="evenodd">
        <g id="试题在线编辑-工具栏icon" transform="translate(-46.000000, -50.000000)">
            <g id="ic_format-match" transform="translate(46.000000, 49.988863)">
                <rect id="选中" fill-opacity="0" fill="#D9D9D9" x="0" y="0" width="24" height="24"></rect>
                <g id="格式刷" transform="translate(12.000000, 12.000000) rotate(-360.000000) translate(-12.000000, -12.000000) translate(5.000000, 5.000000)" stroke="#595959">
                    <path d="M9.07257867,0.562936366 C8.94897768,0.596055151 8.83801108,0.676326123 8.76897549,0.795899279 L7.26869891,3.39369891 L4.67091389,1.89398393 C4.55132612,1.8249399 4.41509074,1.81090649 4.29148976,1.84402528 C4.16788877,1.87714406 4.05692217,1.95741504 3.98788658,2.07698819 L0.612886577,7.92265967 C0.543850983,8.04223282 0.529817581,8.1784682 0.562936366,8.30206919 C0.596055151,8.42567018 0.676326123,8.53663678 0.795899279,8.60567237 L8.91488744,13.2931724 C9.0344606,13.362208 9.17069597,13.3762414 9.29429696,13.3431226 C9.41789795,13.3100038 9.52886455,13.2297328 9.59790014,13.1101597 L12.9729001,7.26448819 C13.0419357,7.14491504 13.0559691,7.00867966 13.0228504,6.88507867 C12.9897316,6.76147768 12.9094606,6.65051108 12.7898874,6.58147549 L10.1917013,5.08059892 L11.6918557,2.48332226 C11.7608468,2.36382612 11.7748802,2.22759074 11.7417614,2.10398976 C11.7086427,1.98038877 11.6283717,1.86942217 11.5087985,1.80038658 L9.07257867,0.562936366 Z" id="形状结合"></path>
                    <path d="" id="矩形" transform="translate(7.449143, 6.456916) rotate(-330.000000) translate(-7.449143, -6.456916) "></path>
                    <path d="" id="矩形" transform="translate(3.207077, 8.554391) rotate(-330.000000) translate(-3.207077, -8.554391) "></path>
                    <path d="" id="矩形备份-15" transform="translate(4.503871, 9.808277) rotate(-330.000000) translate(-4.503871, -9.808277) "></path>
                    <path d="" id="矩形备份-24" transform="translate(7.972460, 10.800505) rotate(-330.000000) translate(-7.972460, -10.800505) "></path>
                </g>
            </g>
        </g>
    </g>
</svg>