<svg width="20" height="5" xmlns="http://www.w3.org/2000/svg">
 <!-- Generator: Sketch 57.1 (83088) - https://sketch.com -->

 <title>直线 3</title>
 <desc>Created with Sketch.</desc>
 <g>
  <title>background</title>
  <rect fill="none" id="canvas_background" height="7" width="22" y="-1" x="-1"/>
 </g>
 <g>
  <title>Layer 1</title>
  <g fill-rule="evenodd" fill="none" id="最终">
   <g stroke="null" fill-rule="nonzero" fill="#979797" id="画板">
    <path fill="#000000" stroke="null" id="直线-3" d="m-0.238096,3.613095c0.836461,0 1.286668,0.150872 2.073605,0.599413l0.143688,0.082051c1.004851,0.57273 1.712047,0.800678 2.992583,0.800678c1.25625,0 1.860909,-0.21038 2.759285,-0.783392l0.041634,-0.02656c0.796739,-0.508044 1.279382,-0.672191 2.408958,-0.672191c1.120354,0 1.560544,0.154667 2.330839,0.665991l0.004108,0.002727c0.899552,0.597131 1.516811,0.813425 2.874929,0.813425c1.381444,0 1.927945,-0.232395 2.54929,-0.851071l0.002285,-0.002273c0.492482,-0.490372 0.816745,-0.628799 1.914034,-0.628799l0,-0.494048c-1.371522,0 -1.913007,0.23116 -2.533303,0.848799l-0.002285,0.002273c-0.493353,0.491237 -0.822193,0.631072 -1.930021,0.631072c-1.131154,0 -1.576159,-0.155936 -2.34865,-0.668718l-0.004116,-0.002732c-0.897282,-0.595619 -1.509398,-0.810693 -2.857111,-0.810693c-1.350571,0 -2.001583,0.221407 -2.924557,0.809952l-0.041709,0.0266c-0.77264,0.492817 -1.211736,0.645592 -2.243611,0.645592c-1.071501,0 -1.625281,-0.178499 -2.507737,-0.681465l-0.143681,-0.082046c-0.909176,-0.518216 -1.507225,-0.718632 -2.558459,-0.718632l0,0.494048z"/>
   </g>
  </g>
 </g>
</svg>