<?xml version="1.0" encoding="UTF-8"?>
<svg width="16px" height="16px" viewBox="0 0 16 16" version="1.1" xmlns="http://www.w3.org/2000/svg" xmlns:xlink="http://www.w3.org/1999/xlink">
    <!-- Generator: Sketch 63.1 (92452) - https://sketch.com -->
    <title>ic_picture</title>
    <desc>Created with Sketch.</desc>
    <g id="页面-1" stroke="none" stroke-width="1" fill="none" fill-rule="evenodd">
        <g id="试题在线编辑-工具栏icon" transform="translate(-709.000000, -50.000000)">
            <g id="ic_picture" transform="translate(709.000000, 49.988863)">
                <rect id="矩形备份-41" fill-opacity="0" fill="#F5F5F5" x="0" y="0" width="16" height="16"></rect>
                <g id="图片" transform="translate(2.000000, 3.000000)" fill="#FE8D29" fill-rule="nonzero">
                    <path d="M11.5101679,5.22657663 C11.7574596,5.22657663 11.9579291,5.02409235 11.9579291,4.77431533 L11.9579291,1.66215452 C11.956942,0.74671874 11.222465,0.00486009193 10.3161381,0.00386306533 L1.65285448,0.00808417085 C0.746527509,0.00908119746 0.0120505388,0.750939845 0.0110634328,1.66637563 L0.0110634328,8.32748116 C0.0120505388,9.24291694 0.746527509,9.98477559 1.65285448,9.98577261 L10.3161381,9.98094849 C11.222465,9.97995147 11.956942,9.23809282 11.9579291,8.32265704 L11.9579291,6.8933103 C11.9579291,6.84989322 11.9447948,6.81069724 11.9334515,6.77089824 C11.9400699,6.63959023 11.8889424,6.51203178 11.79375,6.42235553 L9.17464552,4.00004397 C8.87136194,3.71903894 8.40688433,3.71059673 8.05285448,4.02356156 L6.15076493,6.17753141 L4.4456903,5.1771294 C4.26821236,5.0411472 4.04389299,4.98330781 3.82360075,5.01672739 C3.61750195,5.05011441 3.43175595,5.16160386 3.30419776,5.32848618 L2.10598881,6.60567211 C1.94278979,6.78780884 1.95337519,7.06822367 2.12983139,7.23727973 C2.3062876,7.40633578 2.58408391,7.40220861 2.75554104,7.22798367 L3.96628731,5.93753141 L5.66837687,6.93672739 C5.97106343,7.17250628 6.40270522,7.16044598 6.73643657,6.86738065 L8.6295709,4.72245603 L11.0618097,6.97230528 L11.0618097,8.32265704 C11.0618097,8.73813442 10.7268843,9.07642588 10.315541,9.07642588 L1.65285448,9.08125 C1.24151119,9.08125 0.906585821,8.74295854 0.906585821,8.32748116 L0.906585821,1.66637563 C0.906585821,1.25089824 1.24151119,0.912606784 1.65285448,0.912606784 L10.3161381,0.907782663 C10.7274813,0.907782663 11.0624067,1.24607412 11.0624067,1.66155151 L11.0624067,4.77431533 C11.0624067,5.02396357 11.2630037,5.22657663 11.5101679,5.22657663 Z" id="路径"></path>
                    <path d="M2.51673507,2.90557161 C2.51673507,3.23694246 2.78536422,3.50557161 3.11673507,3.50557161 C3.44810592,3.50557161 3.71673507,3.23694246 3.71673507,2.90557161 C3.71673507,2.57420076 3.44810592,2.30557161 3.11673507,2.30557161 C2.78536422,2.30557161 2.51673507,2.57420076 2.51673507,2.90557161 L2.51673507,2.90557161 Z" id="路径"></path>
                </g>
            </g>
        </g>
    </g>
</svg>