<?xml version="1.0" encoding="UTF-8"?>
<svg width="24px" height="24px" viewBox="0 0 24 24" version="1.1" xmlns="http://www.w3.org/2000/svg" xmlns:xlink="http://www.w3.org/1999/xlink">
    <!-- Generator: Sketch 63.1 (92452) - https://sketch.com -->
    <title>ic_subscript</title>
    <desc>Created with Sketch.</desc>
    <g id="页面-1" stroke="none" stroke-width="1" fill="none" fill-rule="evenodd">
        <g id="试题在线编辑-工具栏icon" transform="translate(-267.000000, -50.000000)">
            <g id="ic_subscript" transform="translate(267.000000, 49.988863)">
                <rect id="矩形备份-11" fill-opacity="0" fill="#F5F5F5" x="0" y="0" width="24" height="24"></rect>
                <g id="x" transform="translate(6.000000, 8.000000)" fill-rule="nonzero">
                    <polygon fill="#595959" points="2.028 8.272 4.508 4.832 6.972 8.272 8.492 8.272 5.212 3.888 8.14 -4.4408921e-15 6.636 -4.4408921e-15 4.508 2.944 2.364 -4.4408921e-15 0.86 -4.4408921e-15 3.788 3.888 0.508 8.272"></polygon>
                    <path d="M12.6571209,8 L12.6571209,7.34065934 L10.2051978,7.34065934 C10.3082198,7.0728022 10.6241538,6.76373626 11.153,6.41346154 C11.6406374,6.08379121 11.9771758,5.8228022 12.1694835,5.62362637 C12.4854176,5.27335165 12.6502527,4.88873626 12.6502527,4.46291209 C12.6502527,4.03021978 12.4991538,3.67994505 12.2038242,3.40521978 C11.9016264,3.13049451 11.5101429,3 11.0431099,3 C10.5211319,3 10.0953077,3.1717033 9.77937363,3.52884615 C9.47030769,3.85851648 9.31234066,4.29807692 9.30547253,4.84752747 L10.0540989,4.84752747 C10.0678352,4.44917582 10.1502527,4.15384615 10.3150879,3.9478022 C10.4730549,3.73489011 10.7065714,3.63186813 11.0156374,3.63186813 C11.3040989,3.63186813 11.5307473,3.70054945 11.6818462,3.83791209 C11.8329451,3.97527473 11.9084945,4.18131868 11.9084945,4.45604396 C11.9084945,4.74450549 11.7917363,5.01236264 11.571956,5.25961538 C11.4345934,5.40384615 11.2010769,5.58928571 10.8714066,5.8228022 C10.3150879,6.20741758 9.94420879,6.50274725 9.76563736,6.71565934 C9.43596703,7.08653846 9.278,7.51236264 9.278,8 L12.6571209,8 Z" id="2" fill="#2B9DF0"></path>
                </g>
            </g>
        </g>
    </g>
</svg>