<?xml version="1.0" encoding="UTF-8"?>
<svg width="16px" height="16px" viewBox="0 0 16 16" version="1.1" xmlns="http://www.w3.org/2000/svg" xmlns:xlink="http://www.w3.org/1999/xlink">
    <!-- Generator: Sketch 63.1 (92452) - https://sketch.com -->
    <title>ic_symbol</title>
    <desc>Created with Sketch.</desc>
    <g id="页面-1" stroke="none" stroke-width="1" fill="none" fill-rule="evenodd">
        <g id="试题在线编辑-工具栏icon" transform="translate(-677.000000, -50.000000)">
            <g id="ic_symbol" transform="translate(677.000000, 49.988863)">
                <rect id="矩形备份-40" fill-opacity="0" fill="#F5F5F5" x="0" y="0" width="16" height="16"></rect>
                <path d="M3,11.84004 L5.39116906,11.84004 C3.87583556,10.7045312 3.11909524,9.31867058 3.11909524,7.68100068 C3.11909524,6.79119569 3.31805415,5.99296697 3.71773655,5.28632819 C4.11565437,4.57969234 4.67860308,4.02262596 5.40645405,3.61355327 C6.13439004,3.2044982 7.00850135,3 8.02891441,3 C9.04084355,3 9.88438923,3.18772917 10.5596037,3.56318751 C11.2347126,3.93862628 11.7908613,4.477432 12.2262286,5.17944619 C12.6616047,5.88154156 12.8810138,6.71487237 12.8810138,7.68098894 C12.8810138,9.31717208 12.1241655,10.7030229 10.6089181,11.8400282 L13,11.8400282 L13,13 L8.73981936,13 L8.73981936,11.91329 C10.5136594,11.1715501 11.3997184,9.82692348 11.3997184,7.88251265 C11.3997184,6.78662784 11.086728,5.88458843 10.4609401,5.17639443 C9.83506612,4.46827085 9.02216237,4.11263134 8.0204305,4.11263134 C6.98981472,4.11263134 6.16495568,4.46975565 5.54596998,5.18249795 C4.92855703,5.89533414 4.61905328,6.77292426 4.61905328,7.81528591 C4.61905328,9.78727995 5.50170953,11.1532161 7.26533922,11.91329 L7.26533922,13 L3,13 L3,11.8400282 L3,11.84004 Z" id="路径" fill="#FE8D29" fill-rule="nonzero"></path>
            </g>
        </g>
    </g>
</svg>