<?xml version="1.0" encoding="UTF-8"?>
<svg width="25px" height="24px" viewBox="0 0 25 24" version="1.1" xmlns="http://www.w3.org/2000/svg" xmlns:xlink="http://www.w3.org/1999/xlink">
    <!-- Generator: Sketch 63.1 (92452) - https://sketch.com -->
    <title>ic_superscript</title>
    <desc>Created with Sketch.</desc>
    <g id="页面-1" stroke="none" stroke-width="1" fill="none" fill-rule="evenodd">
        <g id="试题在线编辑-工具栏icon" transform="translate(-295.000000, -50.000000)">
            <g id="ic_superscript" transform="translate(295.000000, 49.988863)">
                <rect id="矩形备份-12" fill-opacity="0" fill="#F5F5F5" x="0" y="0" width="24" height="24"></rect>
                <g id="x备份-2" transform="translate(6.000000, 7.000000)" fill-rule="nonzero">
                    <polygon id="x" fill="#595959" points="2.028 9.272 4.508 5.832 6.972 9.272 8.492 9.272 5.212 4.888 8.14 1 6.636 1 4.508 3.944 2.364 1 0.86 1 3.788 4.888 0.508 9.272"></polygon>
                    <path d="M12.6571209,5 L12.6571209,4.34065934 L10.2051978,4.34065934 C10.3082198,4.0728022 10.6241538,3.76373626 11.153,3.41346154 C11.6406374,3.08379121 11.9771758,2.8228022 12.1694835,2.62362637 C12.4854176,2.27335165 12.6502527,1.88873626 12.6502527,1.46291209 C12.6502527,1.03021978 12.4991538,0.679945055 12.2038242,0.40521978 C11.9016264,0.130494505 11.5101429,0 11.0431099,0 C10.5211319,0 10.0953077,0.171703297 9.77937363,0.528846154 C9.47030769,0.858516484 9.31234066,1.29807692 9.30547253,1.84752747 L10.0540989,1.84752747 C10.0678352,1.44917582 10.1502527,1.15384615 10.3150879,0.947802198 C10.4730549,0.73489011 10.7065714,0.631868132 11.0156374,0.631868132 C11.3040989,0.631868132 11.5307473,0.700549451 11.6818462,0.837912088 C11.8329451,0.975274725 11.9084945,1.18131868 11.9084945,1.45604396 C11.9084945,1.74450549 11.7917363,2.01236264 11.571956,2.25961538 C11.4345934,2.40384615 11.2010769,2.58928571 10.8714066,2.8228022 C10.3150879,3.20741758 9.94420879,3.50274725 9.76563736,3.71565934 C9.43596703,4.08653846 9.278,4.51236264 9.278,5 L12.6571209,5 Z" id="2" fill="#2B9DF0"></path>
                </g>
            </g>
        </g>
    </g>
</svg>