<?xml version="1.0" encoding="UTF-8"?>
<svg width="16px" height="16px" viewBox="0 0 16 16" version="1.1" xmlns="http://www.w3.org/2000/svg" xmlns:xlink="http://www.w3.org/1999/xlink">
    <!-- Generator: Sketch 63.1 (92452) - https://sketch.com -->
    <title>ic_video</title>
    <desc>Created with Sketch.</desc>
    <g id="页面-1" stroke="none" stroke-width="1" fill="none" fill-rule="evenodd">
        <g id="试题在线编辑-工具栏icon" transform="translate(-744.000000, -50.000000)">
            <g id="ic_video" transform="translate(744.000000, 49.988863)">
                <rect id="矩形备份-42" fill-opacity="0" fill="#F5F5F5" x="0" y="0" width="16" height="16"></rect>
                <g id="shipin" transform="translate(2.000000, 3.000000)" fill="#FE8D29" fill-rule="nonzero">
                    <path d="M11.1,0 L0.9,0 C0.642857143,0 0.428571429,0.0833333333 0.257142857,0.291666667 C0.0857142857,0.458333333 0,0.708333333 0,1 L0,8.95833333 C0,9.54166667 0.385714286,10 0.9,10 L11.1,10 C11.3571429,10 11.5714286,9.91666667 11.7428571,9.70833333 C11.9142857,9.5 12,9.25 12,9 L12,1 C12,0.458333333 11.5714286,0 11.1,0 Z M2.14285714,9.16666667 L1.45714286,9.16666667 C1.11428571,9.16666667 0.857142857,8.875 0.857142857,8.5 L0.857142857,6.66666667 L2.14285714,6.66666667 L2.14285714,9.16666667 Z M2.14285714,5.83333333 L0.857142857,5.83333333 L0.857142857,4.16666667 L2.14285714,4.16666667 L2.14285714,5.83333333 Z M2.14285714,3.33333333 L0.857142857,3.33333333 L0.857142857,1.5 C0.857142857,1.125 1.11428571,0.833333333 1.45714286,0.833333333 L2.14285714,0.833333333 L2.14285714,3.33333333 Z M9,3.75 L9,9.16666667 L3,9.16666667 L3,0.833333333 L9,0.833333333 L9,3.75 Z M11.1428571,8.5 C11.1428571,8.875 10.8857143,9.16666667 10.5428571,9.16666667 L9.85714286,9.16666667 L9.85714286,6.66666667 L11.1428571,6.66666667 L11.1428571,8.5 Z M11.1428571,5.83333333 L9.85714286,5.83333333 L9.85714286,4.16666667 L11.1428571,4.16666667 L11.1428571,5.83333333 Z M11.1428571,3.33333333 L9.85714286,3.33333333 L9.85714286,0.833333333 L10.5857143,0.833333333 C10.8857143,0.833333333 11.1428571,1.125 11.1428571,1.5 L11.1428571,3.33333333 Z" id="形状"></path>
                    <path d="M5.1,6.8 L7.02857143,5.65 L7.37142857,5.45 C7.8,5.2 7.8,4.8 7.37142857,4.55 L5.1,3.2 C4.88571429,3.1 4.71428571,3.2 4.71428571,3.45 L4.71428571,6.45 C4.71428571,6.8 4.88571429,6.9 5.1,6.8 L5.1,6.8 Z" id="路径"></path>
                </g>
            </g>
        </g>
    </g>
</svg>