<?xml version="1.0" encoding="UTF-8"?>
<svg width="24px" height="24px" viewBox="0 0 24 24" version="1.1" xmlns="http://www.w3.org/2000/svg" xmlns:xlink="http://www.w3.org/1999/xlink">
    <!-- Generator: Sketch 63.1 (92452) - https://sketch.com -->
    <title>ic_wordspace</title>
    <desc>Created with Sketch.</desc>
    <g id="页面-1" stroke="none" stroke-width="1" fill="none" fill-rule="evenodd">
        <g id="试题在线编辑-工具栏icon" transform="translate(-488.000000, -50.000000)">
            <g id="ic_wordspace" transform="translate(488.000000, 49.988863)">
                <rect id="矩形备份-34" fill-opacity="0" fill="#F5F5F5" x="0" y="0" width="24" height="24"></rect>
                <rect id="矩形备份-30" fill="#2B9DF0" transform="translate(12.000000, 6.500000) scale(1, -1) translate(-12.000000, -6.500000) " x="7" y="6" width="10" height="1"></rect>
                <path d="M15.8771068,8.64264069 L15.17,7.93553391 L16.584,6.521 L15.17,5.10710678 L15.8771068,4.4 L17.9984271,6.52132034 L15.8771068,8.64264069 Z" id="形状结合" fill="#2B9DF0"></path>
                <path d="M6.70710678,8.64264069 L6,7.93553391 L7.414,6.521 L6,5.10710678 L6.70710678,4.4 L8.82842712,6.52132034 L6.70710678,8.64264069 Z" id="形状结合备份-11" fill="#2B9DF0" transform="translate(7.414214, 6.521320) scale(-1, 1) translate(-7.414214, -6.521320) "></path>
                <rect id="矩形备份-28" fill="#595959" x="6" y="10" width="12" height="1"></rect>
                <rect id="矩形" fill="#2B9DF0" x="4" y="4" width="1" height="16"></rect>
                <rect id="矩形备份-38" fill="#2B9DF0" x="19" y="4" width="1" height="16"></rect>
                <rect id="矩形备份-31" fill="#595959" x="6" y="14" width="12" height="1"></rect>
                <rect id="矩形备份-37" fill="#595959" x="6" y="18" width="12" height="1"></rect>
            </g>
        </g>
    </g>
</svg>