<?xml version="1.0" encoding="UTF-8"?>
<svg width="24px" height="24px" viewBox="0 0 24 24" version="1.1" xmlns="http://www.w3.org/2000/svg" xmlns:xlink="http://www.w3.org/1999/xlink">
    <!-- Generator: Sketch 63.1 (92452) - https://sketch.com -->
    <title>line-space</title>
    <desc>Created with Sketch.</desc>
    <g id="页面-1" stroke="none" stroke-width="1" fill="none" fill-rule="evenodd">
        <g id="试题在线编辑-工具栏icon" transform="translate(-516.000000, -50.000000)">
            <g id="line-space" transform="translate(516.000000, 49.988863)">
                <rect id="矩形备份-35" fill-opacity="0" fill="#F5F5F5" x="0" y="0" width="24" height="24"></rect>
                <g id="编组-4" transform="translate(3.100000, 4.292893)">
                    <rect id="矩形" fill="#595959" x="6.9" y="1.70710678" width="9" height="1"></rect>
                    <rect id="矩形备份-18" fill="#595959" x="6.9" y="5.70710678" width="9" height="1"></rect>
                    <rect id="矩形备份-30" fill="#2B9DF0" transform="translate(3.000000, 4.235534) scale(1, -1) rotate(-270.000000) translate(-3.000000, -4.235534) " x="0" y="3.73553391" width="6" height="1"></rect>
                    <rect id="矩形备份-36" fill="#2B9DF0" transform="translate(3.042641, 12.207107) scale(1, -1) rotate(-90.000000) translate(-3.042641, -12.207107) " x="0.0426406871" y="11.7071068" width="6" height="1"></rect>
                    <path d="M2.31421356,4.24264069 L1.60710678,3.53553391 L3.02110678,2.121 L1.60710678,0.707106781 L2.31421356,9.32587341e-15 L4.43553391,2.12132034 L2.31421356,4.24264069 Z" id="形状结合" fill="#2B9DF0" transform="translate(3.021320, 2.121320) rotate(-90.000000) translate(-3.021320, -2.121320) "></path>
                    <path d="M2.31421356,16.4426407 L1.60710678,15.7355339 L3.02110678,14.321 L1.60710678,12.9071068 L2.31421356,12.2 L4.43553391,14.3213203 L2.31421356,16.4426407 Z" id="形状结合备份-10" fill="#2B9DF0" transform="translate(3.021320, 14.321320) rotate(-270.000000) translate(-3.021320, -14.321320) "></path>
                    <rect id="矩形备份-28" fill="#595959" x="6.9" y="9.70710678" width="9" height="1"></rect>
                    <rect id="矩形备份-31" fill="#595959" x="6.9" y="13.7071068" width="9" height="1"></rect>
                </g>
            </g>
        </g>
    </g>
</svg>